<svg viewBox="0 0 1026 1026" version="1.1" xmlns="http://www.w3.org/2000/svg" xmlns:xlink="http://www.w3.org/1999/xlink" xml:space="preserve" xmlns:serif="http://www.serif.com/" style="fill-rule:evenodd;clip-rule:evenodd;stroke-linecap:round;stroke-linejoin:round;stroke-miterlimit:1.5;">
    <g transform="matrix(1,0,0,1,-17035.6,-2162.67)">
        <g id="Artboard3" transform="matrix(0.900136,0,0,0.915457,1796.85,262.771)">
            <rect x="16929.4" y="2075.36" width="1138.9" height="1119.73" style="fill:none;"/>
            <clipPath id="_clip1">
                <rect x="16929.4" y="2075.36" width="1138.9" height="1119.73"/>
            </clipPath>
            <g clip-path="url(#_clip1)">
                <g transform="matrix(1.30705,0,0,1.29058,-5489.44,-851.606)">
                    <path d="M18023.6,2484.86L18023.6,2918.74C18023.6,3038.47 17925.9,3135.67 17805.7,3135.67L17370,3135.67C17249.8,3135.67 17152.2,3038.47 17152.2,2918.74L17152.2,2484.86C17152.2,2365.14 17249.8,2267.94 17370,2267.94L17805.7,2267.94C17925.9,2267.94 18023.6,2365.14 18023.6,2484.86ZM17924,2534.33C17924,2441.97 17848.7,2366.98 17755.9,2366.98L17419.8,2366.98C17327.1,2366.98 17251.8,2441.97 17251.8,2534.33L17251.8,2869.05C17251.8,2961.42 17327.1,3036.41 17419.8,3036.41L17755.9,3036.41C17848.7,3036.41 17924,2961.42 17924,2869.05L17924,2534.33Z" style="fill:rgb(4,60,67);stroke:black;stroke-width:0.42px;"/>
                </g>
                <g transform="matrix(1.11094,0,0,1.09235,-1996.2,-287.038)">
                    <path d="M17546.3,2411.75C17691.7,2411.75 17809.8,2529.8 17809.8,2675.2C17809.8,2820.61 17691.7,2938.66 17546.3,2938.66C17400.9,2938.66 17282.9,2820.61 17282.9,2675.2C17282.9,2529.8 17400.9,2411.75 17546.3,2411.75ZM17548.2,2514.58C17459.5,2514.58 17387.4,2586.62 17387.4,2675.36C17387.4,2764.09 17459.5,2836.13 17548.2,2836.13C17636.9,2836.13 17709,2764.09 17709,2675.36C17709,2586.62 17636.9,2514.58 17548.2,2514.58Z" style="fill:rgb(4,60,67);stroke:black;stroke-width:0.5px;"/>
                </g>
                <g transform="matrix(1.11094,0,0,1.09235,-1996.74,-281.737)">
                    <circle cx="17820.2" cy="2398.05" r="61.872" style="fill:rgb(4,60,67);stroke:black;stroke-width:0.5px;"/>
                </g>
            </g>
        </g>
    </g>
</svg>
