<svg id="back-arrow" xmlns="http://www.w3.org/2000/svg" viewBox="0 0 887.30034 314.38074">
  <g>
    <path d="M842.42247,123.24679a10.68443,10.68443,0,0,1,3.5019-.38714c1.92517,1.93145,2.7617,4.42539,3.52946,7.02516a2.005,2.005,0,0,0-.14272-.1496q-.40815.34755-.81623.69508l.315.31441a5.5922,5.5922,0,0,0,.644-.8599c.383.47433.81824.99384,1.38164,1.66627,4.28259.68974,6.42364,4.63852,9.55383,7.26287l-.82836.32834.82836.6688v.99714l-.82836.32836.82836.6688c0,.66475,0,1.3295.05231,2.0394a2.007,2.007,0,0,0-.14279-.1496q-.408.34758-.81617.69514l.315.31442a5.59433,5.59433,0,0,0,.644-.86c.70484-.19532,1.86023.44943,1.94547-1.04227h2.24823c-.56932.72371-.82,1.04242-1.10345,1.40264.9167.6089,1.865,1.23885,2.81413,1.86928-.3919.58755-.71106,1.066-1.264,1.89495,1.46023,1.101,2.87565,2.16811,4.23041,3.18956-.33112.57376-.63156,1.09436-.932,1.615H865.6392c1.415,1.02941,2.07813,1.51184,2.74121,1.99427a9.58926,9.58926,0,0,0,1.04413.94492,1.99385,1.99385,0,0,0-.1498.14246q.34815.40741.69625.81484l.31495-.31441a5.60087,5.60087,0,0,0-.8614-.64289,9.59019,9.59019,0,0,1-1.04413-.94491v-1.99428l3.59018,2.38915c1.35494,2.9721,2.81547,6.17578,4.42142,9.69848-.15809.25966-.47756.78421-.79935,1.31272l2.63233,1.78026c-.3438.96856-.61992,1.74658-1.20106,3.38387,1.126-.96019,1.4673-1.25125,2.032-1.73287.54341,3.525,1.06632,6.91734,1.69191,10.97545.21485.15344,1.016.72578,1.71757,1.22692a20.02053,20.02053,0,0,0-1.04718,1.9226,2.00566,2.00566,0,0,0-.14266-.14953l-.81629.695.315.31441a5.589,5.589,0,0,0,.644-.85991c.55847.35084,1.1693.74683,1.72453,1.10683a34.67923,34.67923,0,0,1-1.362,4.07011c.20137.5112.57169.31009.55114.16383a8.15219,8.15219,0,0,0-.43214-1.39735c-.17125.60089-.34251,1.2018-.119,1.23352,1.13222-.29044,2.75749,4.63126,2.54124,5.596-.4939,2.20307.75526,4.03456,1.06412,6.05711.28374,1.85737-.53048,3.7067.80166,5.67433a3.87546,3.87546,0,0,1-.73478,4.86387c.31075,1.41769.60919,2.77878.90738,4.13991.333,1.52,1.2705,3.25993.81958,4.49468a25.38078,25.38078,0,0,0-.62668,3.35066c-.81562,3.56674-.93384,7.29241-1.63264,10.83207-.66327,2.04295-1.32653,4.08592-2.09253,6.44534l-1.59076.6c.28027.67592.5567,1.34243.929,2.24037-1.04639,1.34655-2.36212,2.86219-3.45295,4.52488-.4825.73532-.268,1.948-.78246,2.63713-3.127,4.18892-4.77185,9.33881-8.597,13.14522a2.00553,2.00553,0,0,0,.14986-.14253q-.34817-.40738-.69631-.81481l-.315.31441a5.59875,5.59875,0,0,0,.86141.64293,8.572,8.572,0,0,1-4.88647,4.26181c.2563,2.31639-1.07473,3.71092-3.05934,4.6602a9.58358,9.58358,0,0,0-1.04413-.94492,2.00134,2.00134,0,0,0,.14986-.14251l-.69631-.81477-.315.3144a5.60493,5.60493,0,0,0,.86141.64288,9.58358,9.58358,0,0,1,1.04413.94492c-1.3664,1.60587-2.73274,3.21178-4.15,4.87747-.84312.063-1.62892.12173-2.415.18055-1.07845,2.63652-3.13579,4.378-5.42164,5.91055q-.49941-.49859-.99889-.99714v-.99714l.82836-.32835-.82836-.6688q-.49941-.49858-.99889-.99714c.70381-.86876,1.23929-2.19583,2.141-2.52587,3.62744-1.32777,4.86178-5.14995,7.827-7.11837.30484-.20233.19217-.97545.48939-1.25364a64.01471,64.01471,0,0,0,11.29-13.75971c-.08371-.08353-.31843-.31784-.71076-.70951,1.41707-1.783,2.92589-3.5459,4.26906-5.42675a7.71708,7.71708,0,0,0,1.57466-3.29046c.13693-1.15849.8686-2.13013.52572-3.58838-.25771-1.09571,1.878-2.53309,1.49767-4.17816-.29905-1.29341,1.50046-2.23131.27392-3.7101-.35678-.4301.44964-2.0242.98609-2.92923a11.16516,11.16516,0,0,1,1.92559-1.9908c-.96487-1.96739-1.812-3.56025-.51243-5.56692a3.36276,3.36276,0,0,0-.61254-4.42312l1.86328-.66276c-.54309-1.054-1.08064-2.09721-1.86212-3.61392-.307-1.6165.30734-3.81425-.88573-6.019-1.01115-1.86839.92469-4.55991-1.09278-6.49261,1.76518-1.0741-1.35061-3.27708.97956-4.22051q-.49941-.64152-.99889-1.283c-.00786-2.61289-2.062-4.353-2.95759-6.98,1.06273,0,2.01016,0,3.00283-.05218a1.99263,1.99263,0,0,0-.14992.14252l.69637.81474.315-.31441a5.60832,5.60832,0,0,0-.86141-.64285c-2.8048-2.05474-4.5128-4.93368-6.06162-9.67813-.75148-2.30212-1.74531-4.52539-2.94631-7.59386v-2.859c-.72313-.98245-1.37408-1.86682-2.0774-2.79628a2.009,2.009,0,0,0,.14273.14956l.81623-.69507-.315-.31442a5.59617,5.59617,0,0,0-.644.85993c-.23137-.07186-.7135-.12968-.76892-.31474a34.60351,34.60351,0,0,0-3.53476-7.4984c-.889-1.51887-1.38914-3.34853-3.768-3.47623.56005-.559.795-.79353,1.04005-1.03813a3.22936,3.22936,0,0,0-.51756-.68523c-2.6297-2.02717-3.78-5.48134-6.93509-7.07081-.5442-.27421-.50079-1.71089-.74173-2.66127l-2.70171-.30131c0-.60625,0-1.22178-.05231-1.88248a2.00288,2.00288,0,0,0,.14273.14958q.40814-.34752.81623-.69508l-.315-.3144a5.59446,5.59446,0,0,0-.644.8599c-1.47577.27924-2.22811-.59825-2.982-1.78538a15.34055,15.34055,0,0,0-3.00636-3.605,18.29275,18.29275,0,0,0-3.73669-1.8916c-.16851-.48332-.36873-1.05774-.66461-1.90634-.7905.42458-1.452.77988-2.16281,1.16162-1.83878-1.43653-2.00747-4.73541-5.17686-5.117-.13919-.897-.28051-1.80792-.49493-3.1901-.52518,1.10933-.83294,1.75952-1.13,2.38719-2.25317.29977-2.18873-1.838-3.21079-2.96968-.22637.63389-.43158,1.20872-.684,1.91557-2.35261-1.12461-2.72158-4.54161-5.88127-4.92429a6.26738,6.26738,0,0,1-.98707.70475,8.64752,8.64752,0,0,1-1.39645.415c-.73551-1.51724-.03524-3.89893-2.94082-4.10816-.23851.55638-.51932,1.21147-.81514,1.90141-1.17587-.68369-2.34748-1.36487-3.5319-2.05351.29106-.59524.51365-1.05052.95292-1.94889-1.53845.42626-2.7189.75334-4.55956,1.2633l1.08211-1.20353c-.38093-.78282-.74624-1.53348-1.1757-2.41592-.92481.67967-1.42261,1.04553-1.93266,1.42037-.30087-.27561-.65717-.60191-.95109-.87111l-4.77362,1.11595c-.863-1.26435-1.50919-2.21119-2.18909-3.2073-.46165.46083-.696.69473-.92549.92379l-2.61154-1.88026-1.70373-1.31834c-.20009.95938-.29484,1.41359-.40226,1.92848l-3.51221-.80549c-.21119-.45-.52669-1.122-.86555-1.844-1.11954,2.10076-2.02662-.59616-3.25809-.04238-.96823.43539-2.28994.08744-3.05282.08744-2.47381-1.03906-4.59944-1.93191-6.76457-2.84131a2.29527,2.29527,0,0,1-3.29864.45512c-1.239-.81049-2.14562,1.00729-3.327.38683-1.0993-.5774-2.17617-1.19741-3.30053-1.8195-1.22507,1.19405-2.70816,1.02175-4.31356.51309a11.79272,11.79272,0,0,0-8.82069.25029c-.213-.58017-.42421-1.15575-.70015-1.90759h-4.10493c-.7638-.76248-1.35207-1.34969-2.08527-2.08164-.458.66257-.91634,1.32552-1.19965,1.73536-1.27233.06162-2.042-.50066-3.02447.2336-.63967.4781-1.92907.09-2.92735.09h-3.494a18.14106,18.14106,0,0,1-2.989-.0349,23.31167,23.31167,0,0,1-3.14646-.98087l-1.113.94971c-2.65086-2.74534-5.85512-.69975-9.13376-.95925-.4547-.59041-1.05711-1.37256-1.9459-2.52659-.27532,1.44047-.4478,2.34311-.67253,3.51882-.52267-.36183-.9595-.66428-1.55052-1.07346-4.12962,3.08293-6.15429-.727-8.74491-2.83144-.47079.47028-.9414.94007-1.35189,1.34986.37593.67632.74051,1.33232,1.34281,2.416l-3.07721.19181c-.29429-.82674-.49975-1.40407-.78215-2.1973-.408.86768-.71807,1.52724-1.191,2.53291-.23485-1.234-.408-2.14349-.58157-3.05552-1.2566.98556-2.53545,1.98856-3.80613,2.98519-.65254-.53186-1.02279-.83361-1.40219-1.14284l-1.47693.95156c-.74106-.3837-1.42384-.73726-2.10667-1.09081a5.6482,5.6482,0,0,1,.57675-2.20516c-.18772-.52986-.56382-.33159-.54358-.18942a8.21145,8.21145,0,0,0,.43189,1.39743c.1712-.6009.34245-1.2018.11169-1.208a9.16831,9.16831,0,0,1-1.57564,2.20516c-1.55284.53481-3.10561,1.0696-4.495,1.54808-1.39963-.48205-2.94734-1.01506-4.495-1.54808-.08523-1.4917-1.24062-.847-1.99778-.99715l-.34038-3.48c-.75459,1.58435-1.206,2.53217-1.65739,3.48-1.24947.05431-2.63971-.40411-3.52453.97542-.423-.8283-.841-1.64689-1.30854-2.56229.18546-.20764.49183-.55056.97835-1.09528l-1.97449-.3891v2.4886l-3.30437,1.71754c-1.57168-1.83418-3.43826-1.3998-5.48938.44008-.22448-1.43147-.365-2.32731-.53261-3.39653h-1.96022l1.30635,1.60651c-1.73245.10038-3.22847.187-4.21809.24439-1.67185-.85967-2.89522-1.48871-4.2896-2.20568-.25088.45164-.453.81542-.6551,1.17919l-3.6267,1.00793c-.19631-.577-.39135-1.15042-.68716-2.01984-.808.7028-1.52772,1.32876-2.284,1.98661-.28173-.70524-.50688-1.26893-.84562-2.11678-.68759.29734-1.351.58424-2.45887,1.06328a6.90983,6.90983,0,0,0-2.47845-.83969,9.92362,9.92362,0,0,0-2.99679.97927l-.92908-.8745a11.5127,11.5127,0,0,1-8.47818.369c-1.646-.52235-2.882-.93892-4.44476.09537-.51566.3413-1.55546-.10653-2.73481-.23475,0-.18815,0-.79916-.05231-1.45532a2.00515,2.00515,0,0,0,.14278.14958q.40806-.34753.81617-.6951l-.31495-.3144a5.59471,5.59471,0,0,0-.644.85991c-.82154-.17832-1.69544-.40178-2.68915-.6559-.10748.30451-.31093.88107-.58766,1.66508-.365-.275-.67729-.51029-1.36707-1.03-.4222.72833-.8947,1.54328-1.288,2.22183-2.78724-.5534-5.33178.65746-7.56288-1.09868a8.34154,8.34154,0,0,1-5.15356.98809,21.93929,21.93929,0,0,0-4.131.54416c-.04944-.23769-.14376-.69126-.265-1.27419-1.7911.43684-3.71468,1.65944-5.38427-.28185-.36026.32749-.72094.65531-1.30318,1.18454l-3.04056-2.27983c-1.32958.67936-2.70037,1.37981-4.265,2.17932-.42781-.3252-.91787-.69777-1.40048-1.0647-.31533.282-.662.5921-1.40756,1.259-.4731-.83053-.93877-1.648-1.6941-2.974-.26337,1.27986-.35672,1.73357-.55535,2.6987-.51657-.36682-.9067-.64389-1.54967-1.10045l-2.79974,1.28338c-.2646-.773-.4625-1.35147-.721-2.10668-1.05418.53156-2.08654,1.0521-3.52586,1.77782-.32928-.55779-.80879-1.36989-1.29446-2.19243-.7163.65247-1.06437.96954-1.41487,1.28877l-.7096-.71341-2.86241.86148c-1.0904-.84628-2.06984-1.60649-3.1903-2.47614-.476.954-.80544,1.61445-1.148,2.30107-1.04607-1.252-2.08374-1.31333-2.77432-.41959l-3.93745-.27048c.03548.0628-.427-.75586-.89707-1.58806l-1.44792,1.28924c-.22088-.21-.45579-.43317-.85537-.81294-2.69969,2.61641-5.44475-1.13852-8.28522-.00881-.23411.56743-.46737,1.13422-.91853,2.23051-.30929-1.40184-.51926-2.35338-.71813-3.25489l-6.4067,1.20972c-.06633.19125-.26289.75811-.514,1.48233h-3.92032l1.148-1.38759c-2.32663-1.32921-3.62079,1.02036-5.43127,1.38783-3.11818-.05808-6.41663.915-9.3438-1.09877-.19832-.57645-.39659-1.15263-.69685-2.02542-.74588,1.13514-1.33994,2.03927-1.88694,2.87171l-4.53777.24934-.05128-.47088,2.48226-.8797-2.29167-.66641c-.01786.08046-.234,1.05313-.45006,2.0258l-1.07769-1.01182c-.99136.04487-2.26671,1.04866-2.74725-.85319a2.00712,2.00712,0,0,0,.14278.14959l.81617-.6951-.315-.31441a5.59382,5.59382,0,0,0-.644.85992c-.81916.67058-1.69059,1.296-2.62062,1.96351l-.84623-2.29131c-.60019,1.035-1.07257,1.84966-1.20636,2.08042-3.89758,1.19108-7.1294-3.12433-10.10134.58555l-1.72129-1.18609c-.37321.31416-.74008.623-1.207,1.016-1.23551-.63365-2.46784-1.26568-3.79269-1.94517-.24411.50967-.55242,1.15342-.86689,1.81l-.90884-.82-4.09155,2.02375-.904-1.977c-2.04469-1.71273-2.94813,1.23116-4.40111,1.818l-5.23755-1.03827-.33837-1.89435-.66052.07168v1.82267l-2.78532.71516c-.51746-.40107-1.36329-1.05668-2.26146-1.75748a2.00405,2.00405,0,0,0,.14281.14964l.81617-.69512-.315-.3144a5.5893,5.5893,0,0,0-.644.85988c-1.05745.58537-2.16721,1.12556-3.36086,1.70657-2.21131-1.27665-4.81245-.38225-7.28919-.68753-.81526-.10048-2.10758.69056-2.77639-.97386,2.31794,0,4.143.01323,5.96672-.02884.12562-.0029.2417-.41853.36641-.65006l-3.55619-.98947a20.58713,20.58713,0,0,0-2.77694,1.66837c.07392-.19721-.34538-.39442-.80813-.61206l-4.06322.7411c-.833-.83152-1.42088-1.4184-2.008-2.0041-.87156.62581-1.744,1.25043-2.66159,1.92727a1.99967,1.99967,0,0,0,.14985-.14249l-.6963-.81477-.315.3144a5.60288,5.60288,0,0,0,.86141.64286c-.06615.22593-.17754.50408-.41013,1.08492-1.3329-.61833-2.65147-1.23005-4.093-1.89881-1.16875.83653-2.51768,1.48682-3.88618-.18885l-1.03834.89836-.9414-.854-1.57234.90619-.99889-.99715a9.58266,9.58266,0,0,0-1.04413-.94492,1.99483,1.99483,0,0,0,.14983-.14249l-.69628-.81479-.315.3144a5.60478,5.60478,0,0,0,.86141.64288,9.58266,9.58266,0,0,1,1.04413.94492l.99889.99715c-.11608.28212-.19775.78865-.35355.81251-2.1826.33427-3.24014-1.0595-4.19638-2.97592-1.39427.72676-3.31474.63855-3.6421,2.97578h-3.75492l.09569-1.81334,1.60676.95273c.11578-.48967.22156-.93715.3712-1.57014-3.06156-1.12549-5.5373.11674-7.8692,1.61027l-4.03854-1.3181c-.18248-.53686-.3776-1.111-.6975-2.05218-1.15624.84238-2.132,1.55327-3.08787,2.24969l-.97368-.79616-1.87539,1.872c-.33812-.29179-.67984-.58664-1.08162-.93334-.30862.66688-.61738,1.334-1.02053,2.2051l-.723-2.1395-1.408.86459-.57526-1.623-5.40122,1.3663c-.59117-.42677-1.46026-1.05419-2.32935-1.68162l-.32892-.82691-.67.82691c-.94847,0-1.9002.05039-2.84464-.01136-1.56628-.1024-2.72527.35637-3.14869,2.00565-1.212.62623-2.37,1.5709-3.91788.78242l1.21718-2.20278c-1.82872-1.092-3.63-.31544-5.33565-.5217a1.9975,1.9975,0,0,0,.14986-.14252l-.69631-.81478-.315.31442a5.60283,5.60283,0,0,0,.86141.64288,6.25465,6.25465,0,0,1,.04524.94491l-3.26883-1.01544-1.45047,1.07436c-.90311-.37618-1.85167-.77131-3.27181-1.36289v2.30112h-2.99667c0-.33239,0-.66476-.0132-1.38427a3.91655,3.91655,0,0,1,.031.47444l1.95224-.38126-.08755-.64387a3.526,3.526,0,0,0-1.89569.55069,3.773,3.773,0,0,1-1.88447.72488l.07179.65939h1.82588c-.117.283-.19351.78133-.35791.81214a25.08772,25.08772,0,0,1-2.56276.23433l-.13114-2.75745a17.95424,17.95424,0,0,1-2.38282.68855,21.33858,21.33858,0,0,1-2.79889.02528c.56606.7237.81883,1.04686,1.26788,1.621l-1.75708.53414-.504-3.15143c-3.48005,2.56721-6.88867,2.82033-10.10171.20077-1.57634,1.00957-3.14345,2.0132-4.89163,3.1328-.34288-.61089-.54754-.97552-.80452-1.38529a2.00514,2.00514,0,0,0,.14275.14957l.8162-.69509-.315-.31439a5.59317,5.59317,0,0,0-.644.8599c-.61361-.28724-1.27955-.61961-1.99071-.89977a2.00016,2.00016,0,0,0,.14986-.1425l-.69631-.81478-.315.31441a5.60285,5.60285,0,0,0,.8614.64287c-.88823,2.194-1.8217.176-2.78175-.05872-1.37555.30653-2.4814,1.94752-4.30817.54772-.58748-.45015-2.12343.33322-3.29528.56612-.349-.73711-.6643-1.40305-.99981-2.11168l-2.09014,1.99726c-2.25921.3154-4.12807-1.82218-6.50262-.9407a1.99434,1.99434,0,0,0,.14982-.14248l-.69627-.8148-.315.31441a5.60294,5.60294,0,0,0,.86141.64287c-.90412,2.29025-1.8535.0636-2.86782-.06015-1.47791.66719-3.0191,2.0538-4.56291.02191-.3591.32839-.67211.85784-1.08272.949-2.02217.44876-3.94849-.67784-6.1438-.09618a11.49729,11.49729,0,0,1-6.81432-.10142c-3.89511-1.58445-7.76279-.206-11.586-.76535-2.655,1.89094-5.6767.66743-8.51845.95975-.54538.0561-1.14073-.37166-1.92885-.65331-1.04508.527-2.36569,1.193-3.90609,1.96991l-.70137-2.05391a9.77229,9.77229,0,0,1-1.80658.746,9.92756,9.92756,0,0,1-1.97809.02875c.6108-.51808,1.22163-1.03614,1.97318-1.67357-.02043-.19676-.06505-.62728-.15422-1.4871-1.07168.44359-1.94476.805-2.86309,1.2186a1.99579,1.99579,0,0,0,.14986-.1425l-.69631-.81478-.31495.3144a5.60291,5.60291,0,0,0,.8614.64288c-.97306,1.8011-3.82957.55851-4.9749,2.73266V97.04319l-.60137-.05733-.51156,1.40988c-.461,1.35652-2.65575-.55562-2.85693,1.52963-1.46888-1.31034-3.26833-.97067-4.99444-.99715a5.64781,5.64781,0,0,1,.57678-2.20513c-.18772-.52986-.56384-.33159-.54365-.18943a8.20551,8.20551,0,0,0,.43193,1.39742c.17124-.60089.34248-1.20179.11172-1.208a9.16584,9.16584,0,0,1-1.57567,2.20512l-5.598-1.06812c-.19849.60388-.3865,1.17579-.6789,2.06527a12.97374,12.97374,0,0,1-3.92322-.57575c-.53081.18736-.33219.56282-.18977.54267a8.24208,8.24208,0,0,0,1.39987-.43117c-.602-.17093-1.20391-.34187-1.2101-.1115.60113,2.34433-.5694,1.62535-1.64922,1.19938a9.82769,9.82769,0,0,1-1.13624-.62363V98.46173c-.10762-.11812-.27049-.35681-.31472-.33661-.91092.41606-1.80833.86159-2.58115,1.2391l-.32564,1.408c-.4511.06358-.91667.2581-1.0425.12721-1.44788-1.50643-3.295-.82208-4.98606-.978-.72084-.06645-1.73184.33448-1.79-1.03832a2.00325,2.00325,0,0,0,.14275.14957l.8162-.69509-.315-.31441a5.59563,5.59563,0,0,0-.644.85993c-1.679-.45378-2.94325-2.11814-4.98738-1.89693a1.99855,1.99855,0,0,0,.14983-.14249l-.69628-.81479-.31495.3144a5.60161,5.60161,0,0,0,.8614.64288c-.13327,1.61749-1.5356,1.05762-2.22953.88652-4.92837-1.2153-4.91485-1.26312-10.18461.021a2.12955,2.12955,0,0,1-.98119.02445c-1.20142-.30063-2.40136-.94544-3.58034-.90042-1.14627.04376-2.26621.7753-3.48224,1.23692l-.77326-2.119a4.94376,4.94376,0,0,1-5.46359.07011c-1.8823,2.33222-3.4429-.58942-5.28539-.3464-2.02328.26687-4.22535.53328-6.01562-1.06018l-1.3604.94719c-7.5549-1.67556-14.97438-.55748-22.32756-.7621-7.31672-.20361-14.64381-.017-21.96571-.07721-.99266-.00817-2.38331-.98461-2.89308-.59782-1.26482.95965-2.52035.51732-3.76993.61175-1.15829.08753-2.69652-.45168-3.41995.11249-1.72821,1.34775-3.57854.20614-5.3663.76314-1.9714.61421-4.28561.19509-6.4444.095-.44473-.02062-.86255-.61955-1.29277-.95194l.82837-.32835-.82837-.66879-2.12859-2.9273h3.92887l.11641-.65894-2.50457-1.03834c1.65524-.16677,2.61989-.264,3.62978-.41337a2.00838,2.00838,0,0,0-.14985.14252l.69631.81478.31495-.31441a5.60073,5.60073,0,0,0-.86141-.64288c-.25817-2.0114-2.46482-.083-2.97242-1.44844,1.60673-.65068,3.27953-1.30243,4.93038-2.00556,1.13048-.48149,2.2707-1.27132,3.04356.55994a2.00391,2.00391,0,0,0-.14275-.14959l-.8162.6951.31495.31441a5.59269,5.59269,0,0,0,.644-.85992c1.316-.29608,2.68436-.547,4.21546-.82781,1.02792,1.76314,2.95662-.33726,4.604.66206,1.51222.91736,3.88872-.69339,5.58225,1.05256l1.01406-.8863.98.87449,1.54381-1.12036,1.46421,1.04367c1.54793-.30491,2.90479-.67342,4.28492-.81359,1.2106-.12294,2.41425,2.18314,3.67258.0259,1.25139,1.57435,2.99882.81537,4.54236.91966,1.48652.10043,2.99414-.07947,4.4759.05124,1.37794.12156,3.03157-.75521,3.932.96742.90881-.80689,1.73134-1.53717,2.76967-2.45908L155.987,88.404l2.694-2.35648.82746.73057c2.17485-1.08879,4.71789.27668,7.10154-.74792.32259-.13864,1.02358.59993,1.54935.93231l.32892.82692.67-.82692c1.70125.46775,3.009-.865,4.7652-1.13629l4.02178,2.01736.36661-1.77808c2.22517.10915,4.52027-.58745,6.95779.39905.90808.3675,2.4022-.75275,3.34221-.41017,2.31995.84548,4.47383,1.47608,6.69448-.089,3.40595,1.992,7.32251.26073,10.86489,1.48336,1.12488.38824,2.85264.721,3.59766.15387,1.35874-1.03436,3.09541,1.84883,3.93978-.64009,1.54755.31616,3.15858-.58191,4.76245.6573.602.46509,2.25555-.331,3.39082-.67852.93353-.28578,1.767,1.9095,2.69183.064,4.3213-.01425,8.64291-.05206,12.96341,0,.3635.00437.71972.61171,1.07894.93933,1.794-.90858,1.79053-.95,4.1511-.906.19584.54514.403,1.12168.83334,2.31961l1.25026-2.34665h2.73608l.9397,1.91534c3.08677-1.04375,3.08677-1.04375,5.2387.06381,1.40325-.10817,2.78151-2.16319,4.27341-.506,1.48212,1.64635,2.69052-.49395,4.18181-.00537a16.30437,16.30437,0,0,0,5.30142.43957,49.13184,49.13184,0,0,0,5.20448-.68359c-.03451-.02607.46124.34811.97389.735,1.77528-.26631,3.56549-2.5159,6.00909.902-.16607.06057-.6382-.432-1.40844-1.23563l-.18826,2.32509c.79647-.06159,1.22434-.09467,1.5967-1.08946.47131-1.34805,1.596-1.7806,2.85733-2.26571l1.00376,2.89179c.37593-1.35847.64053-2.31457.68156-2.46286h19.05891l-1.26029,1.44488,2.55176,1.302,1.67931-3.36067h5.653c.19338.10224,1.41535.74829,2.46384,1.30264,3.173-.64918,5.70441-3.22371,9.27289-2.70165l.666,1.79034c.76572-1.0148,1.52955-2.02711,2.65281-3.51579.66507,1.20027,1.069,1.92931,1.46761,2.64872h2.138l.675-1.97777H332.976l.32892.82693.67-.82693a4.86154,4.86154,0,0,0,1.80705-.36208,3.39921,3.39921,0,0,1,4.66506.27352l1.7687-1.28356a30.29066,30.29066,0,0,1,2.75471,3.76646c-.0025.09578-.01277-.20848-.023-.51273l-2.94344.38432.05673.66643a7.465,7.465,0,0,0,2.90972-.538,2.32552,2.32552,0,0,1,1.69188-.4c.18083-.96541.37-1.975.6187-3.30294l2.56861,1.3297,3.68633-1.831,1.41563.81276.99889.99714a7.26422,7.26422,0,0,0,.05231,1.04229,2.00123,2.00123,0,0,0-.14276-.14958l-.8162.69509.315.31441a5.595,5.595,0,0,0,.644-.85992c.58026-.15773,1.21279-.27031,1.84536-.3829l-.07179-.65939h-1.82588l-.99889-.99714c.11648-.28247.245-.81487.34764-.80994,1.56366.07512,3.12552.33711,4.68451.31554,1.4566-.02016,2.90644-.39306,4.36572-.45259.35145-.01434.72847.59627.832.68791l3.43539-1.01025c.20439,1.18435.36126,2.09351.5598,3.2439l1.94828-.18468c-.54048-.59906-.85218-.94453-1.18612-1.31465l2.5969-2.46986c.18165.54912.36279,1.09661.61924,1.8717.89449-.42649,1.76382-.90747,2.68272-1.25962.85159-.32634,1.75619-.51495,2.57465-.74645.57892,1.19734,1.04522,2.16173,1.51147,3.12613l-.82836.32836a5.55615,5.55615,0,0,0,.8736.61657,2.00133,2.00133,0,0,0-.14986.14249l.69631.81479.315-.31441a5.60342,5.60342,0,0,0-.86141-.64287,6.255,6.255,0,0,1-.04524-.94493c.92421-.94074,1.84844-1.88148,2.91327-2.96532h1.932c-.35971.85883-.66637,1.591-1.13037,2.69888l3.05441.33337c.15339-1.05155.28517-1.95487.48722-3.34,1.32829.9422,3.02489.5807,3.7836,2.32106a2.002,2.002,0,0,0-.14275-.14959l-.8162.6951.315.31441a5.59479,5.59479,0,0,0,.644-.85992c.28066-.04514.61361-.04514.99182-.09735a2.00016,2.00016,0,0,0-.14986.1425l.69631.81477.315-.3144a5.60285,5.60285,0,0,0-.8614-.64287c-.04524-.85554-.04524-1.76328-.04524-2.97188a28.66628,28.66628,0,0,0,4.39989,1.93138,20.458,20.458,0,0,1-2.377,1.65332c.91173.44077,1.80807.87408,3.02977,1.46468a7.733,7.733,0,0,0-.65281-3.118c-.22271-.26167-.04109-.61892.124-.94374,1.95778-.06607,2.36763,2.8,4.51131,1.98423a2.00212,2.00212,0,0,0-.14992.14256l.69637.81472.315-.31441a5.60415,5.60415,0,0,0-.8614-.64287c-.04524-.55109-.04524-1.15441-.04524-1.83869,2.465.69934,2.465.69934,3.75626,4.05673a5.84076,5.84076,0,0,0,3.236-3.163c1.49434.08509.84842,1.23844,1.0512,2.03941a2.00783,2.00783,0,0,0-.14279-.14959l-.81616.69512.315.31441a5.594,5.594,0,0,0,.644-.85994c1.22426-.04513,2.50085-.04513,3.9138-.04513a7.63357,7.63357,0,0,0-.16623-1.65668,5.80963,5.80963,0,0,0-.92813-1.19581h6.70841c.47531.83135,1.01145,1.76909,1.93834,3.39025.42141-1.32093.72158-2.26178.77367-2.425h3.71487l-.98015,1.623,1.33677.32622,1.61634-2.05628c.08523,1.49172,1.24059.84693,1.99778.99714l.32892.82692.67-.82692.99889-.99714,2.44908-2.43573,1.90243,7.58555c.60016-.62265,1.04934-1.08866,1.561-1.61956l-.75338-.89927c.87367-.7683,1.76062-1.54826,2.83194-2.49039,0,.64162,0,1.24765.05231,1.89881a2.0117,2.0117,0,0,0-.14279-.1496l-.81617.69513.315.3144a5.59511,5.59511,0,0,0,.644-.85994c.38863-.57751.82958-1.10989,1.42956-1.83427l1.19295.71877.64348-1.75378c1.3927.93374,2.78194,1.86513,3.94257,2.64325,1.75787-.55133,3.34821-1.11529,4.97451-1.54292,1.84893-.48618,3.70721-.64469,5.39253.57961,1.6017-1.59222,3.178-.87216,5.08565-.1763l1.46206-1.001,2.36483,3.16344c.51307-.87588,1.06044-1.81034,1.69264-2.88957l1.41633,1.13661c1.59161-.81745,3.33708-1.74437,5.39527-.19253.69348.52285,2.32448-.19341,3.736-.36941l.47573,1.34971,1.71663-.89769v4.87565c1.13057-2.23295,1.79247-3.54019,2.55328-5.04279,4.253,3.225,8.62986-.79652,13.01561.29539.43954.43878.90914.90757,1.37792,1.37566-.31721.34845-.63363.69759-1.03556,1.14109l1.66246.545c.24237-1.12562.46039-2.13806.77413-3.59507l3.27639,2.352c.18924-.53495.39321-1.11142.73026-2.06406l5.24109.937c.08755-.20727.30807-.72976.62376-1.47754.58657.18822,1.35878.425,2.12325.68443.723.24535,1.438.51445,2.01576.72245,3.75449-1.549,7.455-.65594,11.17105.40837l.68356-1.90274,4.41355,1.53958.46055-1.39864c.21521-.10327.54876-.411.76056-.34266a15.113,15.113,0,0,0,8.69657.18177,12.97165,12.97165,0,0,1,8.64724.44645c.71484.33525,1.92578-.51128,2.92979-.61906.69984-.07513,1.767-.40755,1.79341,1.34875a3.93769,3.93769,0,0,1-.031-.47444l-1.95224.38126.08755.64387a3.52568,3.52568,0,0,0,1.89566-.55069c1.33506-1.51763,2.92546-1.47872,4.64437-1.32.19089.53882.39543,1.11594.85476,2.412.29088-1.17057.492-1.97968.53883-2.16845l8.87526,1.25643c-.09249.08617.26643-.24819.57-.531,1.25361.33022,2.50581,1.012,3.63054.84393a12.533,12.533,0,0,0,2.52819-.22608c2.75859-1.46142,5.25325-.62722,7.713.41766.44842-.41783.80739-.75241,1.226-1.14246,1.31946.09389,2.60355,1.979,4.04415.2471,1.47852,1.53567,2.87589,1.12823,3.89551-.24173,1.35908.4223,2.38931.74242,3.46477,1.0103a1.9972,1.9972,0,0,0-.14986.14254l.69631.81475.315-.3144a5.59966,5.59966,0,0,0-.86141-.64289c.39885-1.753,1.7-.994,2.64507-.71411,3.66834,1.08654,5.34726,1.08792,8.39234-.30208,2.31731,2.48719,5.95169-.26063,8.38654,1.89529l3.15549-1.75639a15.374,15.374,0,0,0,3.67676.85981c1.19508-.0148,2.37882-.84187,3.57555-.863,1.39664-.02464,2.91436-.58967,4.25174.5339a2.59437,2.59437,0,0,0,1.809.36918c2.18775-.27671,4.5842.849,6.5524-.9303,1.77141,1.93372,4.05421.66,6.08759.90608.63675.07706,1.3508-.48277,2.05058-.75942.31349.313.666.66476,1.21727,1.21509-.19357.26529-.41494.56876-.95078,1.30325l1.75513.80227c.79306-.93106,1.88858-2.21714,3.03349-3.56123l3.725,3.02517c1.66111-1.99919,3.3415-.72088,5.03736.3407.29978-.87195.49859-1.45029.735-2.13772l5.83939,2.16665c-.44982.51486-.75009.85852-1.05175,1.20378,1.56387,1.26691,2.68457-.11784,3.94946-.55328l.32892.82693.67-.82693c1.1896-.61336,2.37925-1.22671,3.54074-1.82556l1.45371.82842q.16443.41347.32891.82694l.67-.82693c1.499.71861,2.998,1.43722,4.73576,2.27031.19047-1.2807.32649-2.19522.47281-3.17925H682.23c.24875.65971.46482,1.23265.833,2.20889l1.292-2.52066c1.88913,1.00383,3.11665,1.65614,4.35081,2.312l2.02765-1.36278,2.51728,3.23717c.59266-.91266,1.23971-1.909,1.786-2.75026l8.116,1.5843c.34252-.30165,1.15734-1.01917,1.9729-1.73606.589.58769,1.177,1.17472,2.04741,2.0436l4.22083-.738c.06542.30908.1615.763.277,1.30892,1.259.40428,1.132-1.37745,1.77921-1.20619,2.44406-1.46473,4.58237.38,6.89834-.33541,2.12514-.65649,4.61791-.2136,6.94052-.095a5.92511,5.92511,0,0,1,1.98046.86907l3.94306-1.05682c.23205.88844.34947,1.338.45994,1.76124,1.31665-.2075,2.90991-.97088,3.87045-.4858,1.32738.67029,2.1513.05937,3.23944-.08609a19.098,19.098,0,0,1,4.48061-.012,26.26119,26.26119,0,0,1,3.6603.90373l1.69215-1.22959c.84775.79338,1.65349,1.54745,2.62135,2.45326l3.02526-.85623c.1348.3589.3502.9323.69271,1.84427,1.79122-.22071,3.83625-1.02971,5.53974-.57209,4.14687,1.114,8.92263-1.08724,12.56049,2.40864q1.96638-.60243,3.93416-1.20533.238.27679.47579.55359c-.66784.74839-1.33567,1.49679-1.94187,2.17607v2.29812l1.93053.14418c-.36032-.74812-.58041-1.20509-1.08339-2.24928l2.82577,1.07556.80447-2.16865c.60242,1.03266,1.0779,1.8478,1.83188,3.14028.43171-1.327.609-1.872.84269-2.59019.98408.17956,2.08344,1.73612,3.16488-.13622,2.29329,2.62348,5.87341,2.319,8.6206,3.94447l.329.82693q.33489-.41343.66991-.82691l6.01717,1.36563c.18638.22718.7919.96512,1.39713,1.70279l.92938-.92768c2.05235,1.51171,5.44.70516,6.63965,3.8421l-.82836.32834a5.55681,5.55681,0,0,0,.8736.61657,2.0047,2.0047,0,0,0-.14992.14257q.34824.40735.69637.81472l.315-.3144a5.60008,5.60008,0,0,0-.86141-.64288,6.25478,6.25478,0,0,1-.04524-.94492c.5039-.27953,1.00773-.55907,1.57991-.87649.72764.56438,1.57168,1.219,2.468,1.91875a2.0113,2.0113,0,0,0-.14273-.14952l-.81623.69506.315.3144a5.59577,5.59577,0,0,0,.644-.85994c1.91626-.13845,3.77327.04674,4.94213,1.94917a9.12839,9.12839,0,0,0-1.58289,2.23058c.20125.51126.57175.31013.55114.16391a8.15775,8.15775,0,0,0-.4322-1.39735c-.17125.60091-.34245,1.2018-.11894,1.23344a9.1292,9.1292,0,0,1,1.58289-2.2306c1.35573.73332,2.71152,1.46663,4.15633,2.24811-.50969.55592-.82629.90129-1.50346,1.63985,3.4774-.326,5.697,1.98074,8.36314,2.88495a15.8145,15.8145,0,0,1,6.588,4.38806c.36013.37728.26252,1.19.42835,1.84706a2.00718,2.00718,0,0,0-.14272-.14956q-.40815.34755-.81623.69506l.31495.31441a5.59325,5.59325,0,0,0,.644-.85991c.45159.23439.95542.51393,1.52077.82756l1.127-1.03567c.11633.84619.20644,1.50171.30978,2.54438a3.93367,3.93367,0,0,1-.031-.47443q-.97607.19064-1.95224.38126l.08755.64387A3.5257,3.5257,0,0,0,842.42247,123.24679Zm33.04058,62.32842-.195.1947.69631.81483.315-.31445a1.5826,1.5826,0,0,0-.99712-.48616l.19509-.19475-.69631-.81477-.31495.31439A1.58258,1.58258,0,0,0,875.46305,185.57521Zm-38.95661-64.8143-.195.19468q.34815.40741.69618.81481l.315-.31438a1.58277,1.58277,0,0,0-.99712-.48622l.19522-.19483q-.34825-.40731-.69643-.81466l-.315.3144A1.58271,1.58271,0,0,0,836.50644,120.76091Zm-85.10065-18.93154.195.1947.81623-.69506-.315-.31445a1.57876,1.57876,0,0,0-.48707.99533l-.195-.1947q-.408.34756-.81617.69515l.315.31436A1.57849,1.57849,0,0,0,751.40579,101.82937Zm-403.35605-5.997-.195.19469.69628.8148.315-.31441a1.58292,1.58292,0,0,0-.99709-.48622l.195-.19469-.69628-.81481-.315.3144A1.583,1.583,0,0,0,348.04974,95.83237Zm276.6922-5.98285-.195.19471.69631.81476.315-.31438a2.877,2.877,0,0,0-.90665-.59066,3.32155,3.32155,0,0,0-1.77451-.97081l.863-.0441-.3819-1.94882-.645.08739a2.193,2.193,0,0,0,.93944,1.87919A4.81384,4.81384,0,0,0,624.74194,89.84952Zm-303.85729.0141.19512.19479.81617-.69513-.315-.31441a1.5777,1.5777,0,0,0-.48707.99535l-.19507-.19473-.8162.69509.315.31442A1.578,1.578,0,0,0,320.88465,89.86362Zm301.67868,9.169.195-.19466-.69631-.8148-.31495.3144c.27209.23169.54413.46338,3.32674,1.74216-.67924-.76309-.87781-1.13856-1.02023-1.1184a8.242,8.242,0,0,0-1.39987.43115C623.25567,99.56341,623.85766,99.73435,622.56333,99.03262ZM376.95491,85.0819l-2.059-1.118c.055,1.20392.0945,2.06922.13754,3.01225l1.78631-.15489a8.66045,8.66045,0,0,0,.00269-1.94327l.195.1947.8162-.69511-.31493-.31437A2.13493,2.13493,0,0,0,376.95491,85.0819Zm48.188,1.69656c-1.01535-1.1254-2.02186-1.14086-3.347-.33179.13833.51.28246,1.0415.49685,1.83192,1.022-.53793,1.79275-.94359,2.427-1.2184,1.78287,1.84178,2.95445.82464,4.088-.6668C427.2593,85.20218,426.12312,86.44821,425.14288,86.77846Zm-57.66029-1.6393h-3.58106c.10754.71449.19088,1.26836.34486,2.29154ZM732.39514,97.449c1.884-.611,2.9799-1.72654,1.57771-3.62391C733.41475,95.10709,732.905,96.27806,732.39514,97.449ZM454.01766,87.33584c.50782-.20152,1.21989-.48407,2.47268-.98122l-3.78751-1.681C453.448,86.18245,453.88462,87.06642,454.01766,87.33584ZM335.8763,85.86358c-1.163.67752-1.98964,1.15909-3.31068,1.9287h3.31068ZM413.102,83.13776l3.69507,1.72918V83.13776Zm-51.85809,2.36c-2.6258-1.09794-2.46653-.03533-2.03329,1.26754Zm97.984,11.54967c.54587-1.76729.31935-2.62831-.73843-2.05749C458.70327,95.58576,458.96555,96.31662,459.22786,97.04747Zm233.17587,5.706q-.02688-.4456-.05383-.89123l-2.64544.36937q.0236.26092.04707.52186Zm14.31154-.66186.088.88312,2.61776-.37706-.05347-.50606Zm-373.48958-8.1491h.49944V91.94822h-.49944Zm6.58447-5.15594-.10014-.8633-1.63386.3892.07724.4741Zm91.22744-.98484.86476-.09979-.38985-1.631-.47491.07871Zm33.96222,1.96968.85538-.05536-.36364-1.66588-.49174.06566Zm-53.11163,7.41181v.49857H413.886v-.49857ZM555.57016,84.798l-.10017-.86331-1.6338.38919.07724.47412ZM439.68655,95.12218l-.85543.05538.36364,1.66588.49179-.06568Zm11.98667-9.97143-.8555.0554.3637,1.66587.4918-.06569ZM466.65655,98.089l-.86473.09979.38986,1.631.47487-.07872ZM111.40548,93.11559l.05544.85388,1.66882-.363-.06577-.49092Zm572.99635,6.63955q-.02761-.427-.0553-.85392l-1.6688.363.06737.49092ZM414.044,87.13274l.10014.8633,1.63386-.38921-.07724-.47409ZM626.49127,97.76085l-.10017-.86331-1.6338.38919.07724.47412Zm135.83639,5.33863-.85909.03882.36727,1.68254.49182-.06753Zm47.28883,2.651.86482-.1q-.19488-.81549-.38988-1.631l-.47494.07713Zm13.81392,5.89133v-.49857h-1.99778v.49857Zm-151.01525-9.89237-.05523-.85386q-.83449.18147-1.66886.363l.06737.4909ZM421.87708,91.69894v-.49857H419.8793v.49857ZM883.36374,205.37322v-.49857H881.366v.49857ZM385.75905,97.76085l-.10014-.86327-1.63386.38918.07724.47409Zm72.744-13.78977h-.333v.99714h.333Zm4.3285,1.32952V85.633h.99889V85.3006Zm8.65706-.33238h-.333v.99715h.333Zm71.254.66477V85.3006h-.99889V85.633Zm-202.77444.99714v-.33239h-.99889v.33239Zm8.99,0v-.33239h-.99889v.33239ZM458.503,85.96537h-.333v.99714h.333Zm10.32183.66476v-.33239H467.826v.33239Zm45.94889-.33239v.33239h.99889v-.33239Zm10.65478-.33237h-.33288v.99714h.33288ZM395.24,87.95965h.333v-.99714h-.333Zm285.68228,0h.33288v-.99714h-.33288Zm-447.16931,0h-.33294v.99714h.33294Zm95.56036.99714h.333v-.99714h-.333ZM419.8793,88.292v.33239h.99889V88.292Zm135.183.66476h.33288v-.99714h-.33288Zm85.90445,0h.33288v-.99714h-.33288Zm-414.8719.66477v-.33239H225.096v.33239Zm100.88778-.33239v.33239h.99889v-.33239Zm4.99445.33239v-.33239h-.99889v.33239Zm51.60928-.66477h-.333v.99715h.333Zm34.29516.33238v.33239h.99889v-.33239Zm167.81333.33239v-.33239H584.696v.33239Zm-131.18738.33238h-.333v.99714h.333Zm151.16516.66476v-.33239h-.99889v.33239Zm32.63033-.66476h-.33288v.99714h.33288Zm52.60823.99714h.33288v-.99714h-.33288Zm-343.95078.33238v.33239h.99889v-.33239Zm386.57.33239v-.33239h-.99889v.33239Zm8.99-.33239v.33239h.99889v-.33239Zm-455.49333.99714V92.613h.99888V92.2806Zm29.96666.33239V92.2806h-.99889V92.613Zm361.26478-.66477h-.33288v.99715h.33288Zm30.63267.99715h.33288v-.99715h-.33288Zm14.65033-.66477V92.613h.99889V92.2806Zm-416.86961.66477h-.333v.99714h.333Zm150.83222,0h-.333v.99714h.333Zm56.27072.33237v.33239h.99889v-.33239Zm125.19412.66477h.33288v-.99714H638.969Zm11.98667,0h.33288v-.99714h-.33288Zm44.284-.99714h-.33288v.99714h.33288ZM378.25891,94.93965h.333v-.99714h-.333Zm4.6615-.33237v-.3324h-.99889v.3324Zm361.59778,0v-.3324h-.99889v.3324Zm-368.92295.33237h-.333v.99714h.333Zm14.65033.99714h.333v-.99714h-.333Zm13.65151-.66476v.33239h.99888V95.272Zm26.304.66476h.333v-.99714h-.333Zm34.96111,0h.333v-.99714h-.333Zm153.496-.33237V95.272h-.99889v.33239ZM765.49485,95.272v.33239h.99889V95.272Zm-529.74408.66476h-.33294v.99715h.33294Zm11.32075.66477v-.33239h-.99889v.33239Zm126.85889,0v-.33239h-.99889v.33239Zm99.556-.66477h-.333v.99715h.333Zm198.11294.66477v-.33239h-.99889v.33239ZM341.3,97.93108h.333v-.99714H341.3Zm272.36372-.33238v-.33239h-.99889v.33239Zm19.64478-.66476h-.33288v.99714h.33288Zm88.23522.33237v.33239h.99889v-.33239Zm29.30078.66477h.33289v-.99714h-.33289Zm-411.20928,0h-.333v.99714h.333Zm134.18406.33238v.33239h.99889v-.33239Zm186.12634.66476h.33288v-.99714h-.33288Zm10.65477-.66476v.33239h.99889v-.33239Zm6.32634.66476h.33288v-.99714h-.33288Zm37.62477-.33237v-.33239h-.99889v.33239Zm9.65589-.66477h-.33289v.99714h.33289Zm56.60378.99714h.33288v-.99714h-.33288Zm7.65811-.66476v.33239h.99889v-.33239ZM451.1778,99.92537h.333v-.99715h-.333Zm153.49594-.66477V99.593h.99889V99.2606Zm21.64255-.33238h-.33288v.99715h.33288Zm31.63157.99715h.33288v-.99715h-.33288Zm34.96111,0h.33288v-.99715H692.909Zm64.59477-.66477V99.593h.99889V99.2606Zm20.64367-.33238h-.33289v.99715h.33289Zm-188.124,1.99429h.33288v-.99714h-.33288Zm5.66033-.66477v.33239h.99889v-.33239Zm190.45478-.33237h-.33288v.99714h.33288Zm-107.88.99714h-.33288v.99714h.33288Zm41.28744.33237v.3324h.99889v-.3324Zm21.30968.66477h.33288v-.99714h-.33288Zm29.63366-.33237v-.3324h-.99889v.3324Zm25.97111,0v-.3324h-.99889v.3324Zm-79.91111.99712V102.252h-.99889v.33236Zm47.94666,0V102.252h-.99888v.33236Zm40.62145.33239h-.33289v.99715h.33289Zm-45.94889.99715h-.33288v.99714h.33288Zm10.32189.66475v-.33236h-.99889v.33236Zm6.65922,1.32953h-.33288v.99715h.33288Zm12.65267,2.99143h.33288v-.99714h-.33288Zm23.64033.33239v.33236h.99889V109.232Zm-8.32411,2.659h-.33288v.99714h.33288ZM827.426,113.553v-.33236h-.99888v.33236Zm-11.32078.3324h-.33288v.99714h.33288Zm.99889,1.99428h-.33288v.99714h.33288Zm14.31745.66475V116.212h-.99889v.33236ZM818.436,120.533v-.33236h-.99888v.33236Zm22.30856,6.31525h.33289v-.99714h-.33289Zm4.66144-.33239v-.33236h-.99888v.33236Zm1.99778,3.98857V130.172h-.99889v.33236Zm-7.32522,1.32954h-.33288v.99714h.33288Zm2.33078,1.66189v-.33236h-.99889v.33236Zm6.99222,1.99429v-.33236h-.99889v.33236Zm-3.66255,1.32953h.33288v-.99714H845.739Zm5.66033-.66475v.33236h.99889v-.33236Zm6.32634,3.65618h.33288v-.99714h-.33288Zm-4.99445,3.98857h.33288v-.99714h-.33288Zm10.65477,3.32382v.33236h.99889v-.33236Zm5.99334,20.94v.33236h.99889v-.33236Zm3.32967,1.6619h.33288v-.99715H872.709Zm8.324,15.95428h-.33288v.99714h.33288Zm-.66588,11.301v.33236h.99888v-.33236Zm-1.3319.66476h-.33288v.99714h.33288Zm3.99556,15.95428h-.33288v.99714h.33288Zm-.99889,13.96H881.699v.99714h.33288Zm-5.32733,20.94h.33289v-.99714h-.33289Zm-6.99222,9.97143h.33288v-.99714h-.33288Zm-6.32634,7.64478v-.33242h-.99888v.33242Zm-6.99222,5.65044v.33242h.99889v-.33242Z"/>
    <path d="M107.22708,57.04822c-2.75525,2.28132-6.11673,3.15692-9.48578,3.93-.60769.13945-1.39135-.48524-2.18734-.79336L94.92243,62.006l-1.05433-.78178-2.60657,1.285,1.591,1.83766-3.18971-1.10035-1.61312,4.225-2.47854-3.38928c.0651,1.87579-1.90127,1.78109-2.829,2.96554l-.96484-2.0816a8.06787,8.06787,0,0,1-6.79314,5.14712c-2.04066.33066-3.9059,1.69227-5.87744,2.52612a13.71774,13.71774,0,0,1-1.88043.41532,2.00446,2.00446,0,0,0,.14986-.14253l-.69632-.81476-.31495.31441a5.60268,5.60268,0,0,0,.86141.64288c-.04,1.4395-1.19538.7947-1.95255.94491l-.32892-.82692-.67.82692c-.86149.62485-1.723,1.24972-2.62029,1.90057l-.77229-.81337c-.5667.3209-1.08428.614-1.64708.95931a2.00568,2.00568,0,0,0,.14983-.1425l-.6963-.81478-.315.3144a5.60155,5.60155,0,0,0,.86143.64288c-1.27349,1.77784-3.73332,1.302-5.394,2.72076C52.41666,79.984,50.337,80.437,48.33511,81.32161l.97448,1.305c-2.59224-.38407-3.56426,2.54719-6.39919,2.355a3.95473,3.95473,0,0,1,.47525-.03114l-.38193-1.94882-.64548.08175a3.53008,3.53008,0,0,0,.55216,1.89821,11.91636,11.91636,0,0,1-2.24859,2.00145L39.95933,84.984l-3.162,3.78652H32.96605c-.84384,1.68066-1.34983,3.50308-3.69754,3.23a2.0058,2.0058,0,0,0,.14986-.14252l-.69632-.81477-.31495.31441a5.602,5.602,0,0,0,.86141.64288c-.95178,1.668-3.702.75214-4.413,2.9025-3.10539.79668-3.92667,3.28793-4.56107,5.98754a20.97489,20.97489,0,0,1-1.50567,3.23031l2.77048-1.35859,5.55843,4.76048.59362-.4694c1.56181,2.217,5.76329,4.371,7.56853,4.08663l3.10433,3.10147,1.11608-1.04874c1.5081,1.0491,4.15866.066,4.84914,2.73216a2.0015,2.0015,0,0,0-.14278-.14961l-.81617.69511.315.3144a5.59478,5.59478,0,0,0,.644-.8599,13.14138,13.14138,0,0,1,1.61382-.82393l9.13827,4.40455.76831-.6808.68974,2.0329,1.5736-1.18336c1.20178,1.20255,3.53872.92443,4.19626,3.23063a2.00525,2.00525,0,0,0-.14277-.1496l-.81619.69511.315.3144a5.595,5.595,0,0,0,.644-.85991c.77712.16782,1.60657.38079,2.70885.6638.53247-.32254,1.437-1.75738,2.28559.33332a2.00773,2.00773,0,0,0-.14275-.14956l-.8162.69509.31495.31441a5.59416,5.59416,0,0,0,.644-.85994c1.77013.28725,3.61686.52549,5.40629.98576a23.73172,23.73172,0,0,1,3.33236,1.39566l-.95786,1.7532,4.71583-1.38328c-.90737.99787-1.21781,1.33927-1.50492,1.655.63742.50276,1.28949,1.017,1.99386,1.57651a2.00456,2.00456,0,0,0-.14277-.14961l-.81619.69511.315.3144a5.59252,5.59252,0,0,0,.644-.8599c.38826-.57672.82882-1.10829,1.23247-1.5953,2.16128.662,4.4674,1.27694,6.70607,2.07936,2.329.83475,4.97932,1.12976,6.51035,3.6409h4.61895L97.94881,135.732l4.35149-.34876.99776,1.69065.995-.82348,5.78258.82365,2.07764,3.065,1.06716-1.3251,1.633-.76534,3.9856,2.53328,1.031-.84764,2.50207,1.178,1.365-1.04435c.33621.29625.672.85276,1.07187.90322,3.16338.39918,6.448.30877,9.47984,1.14613,2.96423.81865,6.29494.36673,8.91779,2.40059,2.30107-.71944,3.84795,1.43747,6.004,1.53924a53.40134,53.40134,0,0,1,6.67428,1.13682c.13821.395.3395.97018.54077,1.54556,1.25969-.10338,2.64435-2.10087,3.75568.63309a3.91593,3.91593,0,0,1-.031-.47444l-1.95225.38125.08756.64389a3.52586,3.52586,0,0,0,1.89568-.5507,4.17222,4.17222,0,0,1,1.44041-1.21549c1.16158.59885,2.35121,1.21217,3.54083,1.8255l.32892.82691.67-.82691,1.3963-.65533a13.43952,13.43952,0,0,0,2.75079.62084,8.33434,8.33434,0,0,1,5.89411,2.0739,2.00874,2.00874,0,0,0-.14273-.14955l-.81623.69508.315.31441a5.59593,5.59593,0,0,0,.644-.85994c.82228.17778,1.69686.40066,2.69351.65468l1.5413-1.05114,2.2589,3.16114.87287-1.78429c.53718.67218,1.05414,1.31905,1.57111,1.96591l.32892.82692.67-.82692,1.61661,2.04488.66171-1.9721,1.28917.81177,1.061-.87111.80981,2.11937,2.45113-1.09289c2.70966,1.01926,5.23176,2.33813,5.58357,2.93753q1.75443-.49177,3.50814-.986l.32892.82692.67-.82692c.96833.46543,1.93666.93088,2.94954,1.41775v4.954c-4.00161,3.25114-8.56886.90861-13.19417.7713l1.207,1.38961c-1.56631,1.26207-2.6848-.11879-3.94791-.55556l-1.67514-3.47668-.51049,3.4288-5.10454-2.7424c-2.14248,1.40862-3.10586-2.24689-5.16451-1.19829a9.96561,9.96561,0,0,0-5.4875-2.37974c-4.75264-.89721-9.13157-2.95472-13.95689-3.80936-5.37657-.95224-10.46989-3.49808-15.88877-5.42207l-.52955.5036-1.20068-.73767-.95883.79571c-3.42018-1.00161-6.66734-1.99949-9.94327-2.8923-1.65756-.45174-3.50565-.43245-5.001-1.16693a6.70889,6.70889,0,0,0-2.65109-.86652,42.10827,42.10827,0,0,1-11.92165-2.52692,13.16108,13.16108,0,0,0-4.04824-1.02656c-4.316-.11034-8.04255-3.002-11.95872-2.42778-1.66028-.8534-2.89428-1.48769-4.11648-2.11593l-1.2333,1.06239-4.68578-2.9975-1.8492,1.25991-2.9659-2.40644-1.6446,1.23074-.57982-1.69985c-1.10308.27845-2.22346.56128-3.47765.8779l-.34716-1.43617-6.96145-1.73279-.32892-.82692-.67.82692c-.7335-.23365-1.4663-.46947-2.20059-.70057-6.1919-1.94878-12.29432-4.14491-18.70512-5.43217a39.38061,39.38061,0,0,0-5.20782-.84276c-1.95921-1.00957-3.60864-1.85951-5.35161-2.75763l-1.25809.67639c-.138-.61-.24022-1.06187-.34226-1.51441-.11728-.11792-.28638-.35832-.34447-.334-.97425.40716-1.93464.84735-2.80958,1.24044l-2.27415-3.54628-.89676,2.3482-3.56177-4.09432-.32893-.82691-.67.82691-3.25129,1.33608-2.403-3.17028-.87752.876-1.82145-2.54415-5.59324-2.49774V107.55a15.1143,15.1143,0,0,1-2.66528-1.8512A9.33459,9.33459,0,0,1,4.48919,103.268l1.69591-1.693c-.27077-.70807-1.27218-1.465.10211-2.09619a8.63775,8.63775,0,0,1-.90765-2.05356,8.90357,8.90357,0,0,1,.00374-2.96405,3.31689,3.31689,0,0,1,1.03287-2.01163c1.61338-1.13451.25111-4.12429,3.30758-4.50328a3.95473,3.95473,0,0,1-.47525.03114l.38193,1.94882.64548-.08175a3.53,3.53,0,0,0-.55216-1.89821,34.43528,34.43528,0,0,1,3.36123-4.977c.89241-.51935,3.09019-.44746,3.51844-2.864h3.03875c1.27936-2.09816,4.68371-1.992,5.12754-5.05956L30.036,73.23361l.88636.78732a8.56386,8.56386,0,0,0,2.78673-2.96578l1.25861,1.02549c1.65938-.64386,3.49658-1.35671,5.379-2.12178a2.004,2.004,0,0,0-.14984.14251l.69631.81477.31495-.31441a5.6027,5.6027,0,0,0-.86142-.64287,6.25759,6.25759,0,0,1-.04522-.94492h1.54286l.85342-1.88085,2.26338,1.202.575-3.30974c1.55393,0,3.15408,0,4.79946-.05222a2.00547,2.00547,0,0,0-.14985.14251l.69632.81477.31495-.31441a5.60205,5.60205,0,0,0-.86142-.64287c.39682-.60348.83887-1.25916,1.3186-1.97075l1.12517.98724,4.42882-2.9297h3.6495l.81044-1.98334,1.4036,1.15475,2.49331-3.3909,1.13581,1.13383c.77047-1.93215,2.961-2.315,4.23658-4.20475l2.11642,2.22536.4271-2.84246h2.827l-1.12922,1.7222c2.65259.61015,3.09809-2.16122,4.85383-2.82469l3.60864,1.45867-1.3029-2.02992c1.56325-.7362,3.0351-1.7746,4.95616-1.46269a2.0053,2.0053,0,0,0-.14984.1425l.69631.81478.31495-.3144a5.60211,5.60211,0,0,0-.86142-.64288c.04-1.4395,1.19539-.79471,1.95256-.94492v2.73641l1.99777-2.73641q1.23932,0,2.48006.00152c.14955-1.90623,2.06126-1.9435,3.07558-2.89266l1.078.92282c1.60255-.28921,3.11055-2.22479,4.76881-.09772l1.95316-4.58687.96114,2.82239,3.41531-3.39384,1.75931,1.0652c1.4018-.46778,2.3253-1.75473,3.36673-3.134l1.738,1.33251.67681-1.98981,1.097.79944,3.18134-1.6262.92683.76447.92481-1.94808c.37884.34337.72794.65978,1.077.97648.53825-.93881,1.07649-1.87791,1.23035-2.14638l6.73869-1.76086,1.08664.97548.69035-2.03818H135.196l.32892.82692.67-.82692c1.6018.27638.54394-2.75861,2.51966-2.01668.50365-1.76208,1.82457-.19156,2.84658-.65827,3.9937-1.82376,8.21909-3.14192,12.41681-4.6693l.54383-1.59049a17.40385,17.40385,0,0,0,1.69614.90538,2.00016,2.00016,0,0,0-.14986.1425l.69631.81478.315-.3144a5.60283,5.60283,0,0,0-.86141-.64288c-.04524-.44312-.04524-.93846-.04524-1.98494l1.58474.89892a31.02054,31.02054,0,0,1,4.32065-.81117c1.64607-.09425,3.6695-.66871,3.91458-1.831.463-2.19592,3.63953-.58113,3.06342-3.19958a6.70623,6.70623,0,0,1,2.25892.03336c3.713,1.73006,6.76379-.0981,9.958-1.58867,1.226-.57213,2.2753-1.7978,3.86748-1.43612l.32892.82693.67-.82692,1.59022.74767a6.47642,6.47642,0,0,1,1.104-1.70645,6.98636,6.98636,0,0,1,1.98938-.84719l1.82417,1.821c.174-1.65285,1.52955-2.19809,2.70032-2.66382,2.42706-.96549,5.03464-1.49728,7.42123-2.54161,4.5039-1.97083,8.90268-4.18086,13.34921-6.28292.55438-.26208,1.13342-.47222,1.41791-.5896.72394-1.129,1.31242-2.04672,1.9912-3.10527l5.47115,1.56216-1.09881,1.90331,2.19558,1.73132-.99889.99714-.99888.99714a7.805,7.805,0,0,0-1.74943,2.24214c.08169.07135-.08494-.10514-.25158-.28163l-1.97806.14455.12721,1.90231a6.58175,6.58175,0,0,0,2.10243-1.76523,9.1561,9.1561,0,0,1,1.74943.7493c.33295,1.35287.69332,2.70014.97305,4.06389.049.239-.24026.54721-.37362.82305-.636-.37189-1.27169-.74336-2.25369-1.31722-.20447,1.2715-.34884,2.16926-.554,3.44467l-1.283-.90666c-.38115.69033-.81734,1.48036-1.27482,2.309l-1.69808-1.35037-1.014.85633-1.13408-1.03169c-2.1887.42049-3.87245,2.52815-6.52209,2.15062-2.09627-.29868-3.92637,2.02645-6.46043,1.20468l-.81852,1.711c-.37945-.339-.73088-.653-1.08194-.96689-.54074.9428-1.08185,1.88547-1.69317,2.9504l-1.6362-1.03361-2.39156,1.19245-1.32586-1.16747c-.19923.58283-.22169,1.38542-.60257,1.62859-1.28976.82343-2.80749,2.18209-4.05546,2.01072-3.58283-.492-6.54181,2.71241-10.0276,1.22148l-2.43792,2.32316-3.04743-.86778-.35026,1.22028-4.40913,2.25878-.58914-.40574-2.87292.61265c-.40789-1.8659-1.69881-.83292-2.80828-.82268l-.27135,1.34574c-2.802-.60435-5.07426,1.95109-7.95338,1.52345a1.9992,1.9992,0,0,0,.14985-.14251l-.6963-.81477-.315.3144a5.6017,5.6017,0,0,0,.86141.64288c.04523.1136.10561.39116.0362.42853-1.08323.58318-2.18325,1.13532-3.35722,1.73434l-1.12062-2.3003-1.3691,1.60675.88892,1.05865c-2.49573,1.1391-4.95274,2.3247-7.46461,3.38023-1.2786.5373-2.6558.84072-4.24833,1.32965l-.7465,1.58833-1.8749-1.26625c-1.22286,1.2871-2.27463,2.55264-3.50339,3.614a6.27785,6.27785,0,0,1-2.16744.73959l-.32892-.82692-.67.82692-1.73851-.95957-.25927,1.95672c-2.12294,2.77083-2.12294,2.77083-6.99222,3.98857V49.47329a23.43971,23.43971,0,0,0-1.94547,1.63722,2.0036,2.0036,0,0,0-.14277-.14959l-.81618.6951.315.31441a5.59328,5.59328,0,0,0,.644-.85992c.61362.28724,1.27955.61962,1.94547.952-.864,1.92554-3.409,1.32582-4.29563,2.69893l-5.53481-1.42462L108.226,55.05394l-.99888.99714-1.89767.33775.0718.65939Zm-52.85067,65.707-.19507.19474.69631.81476.315-.3144a1.58289,1.58289,0,0,0-.99709-.48622l.19506-.19473-.69631-.81477-.315.31441A1.58293,1.58293,0,0,0,54.37641,122.75521ZM90.15552,57.15266l.19506-.19472-.6963-.81478-.315.31441a2.43314,2.43314,0,0,0,1.68223.5639l-.863.04452.38191,1.94882.64551-.08175A1.8633,1.8633,0,0,0,90.15552,57.15266Zm-1.92269,3.08407.03064.91274,2.94343-.38433-.06085-.66619c-.97107.04592-1.94215.09185-2.40118,1.43353L88.245,61.003l-1.97807.14456.12721,1.90232A3.21155,3.21155,0,0,0,88.23283,60.23673ZM18.91527,82.68566c.31525-1.50546.31525-1.50546-2.10726-1.31363Zm96.22278-31.23415-2.07247.95894.353.47526h1.71943Zm7.82153-3.37757h-.49945v1.99428h.49945ZM81.00624,56.05108H80.5068v1.99429h.49944Zm20.398,1.81176.85539-.05536-.36361-1.66589-.49178.06566Zm-3.99556,1.99428.85539-.05534-.3636-1.66591-.49179.06566ZM78.2593,66.77037v-.49858H76.26152v.49858Zm5.74361-3.73929h-.49945v1.99429h.49945ZM13.48973,111.06417l.10813.86134,1.6254-.38716-.0786-.47418Zm184.38651,47.69262h-.49944v1.99429h.49944ZM71.933,68.01679H71.6v.99715h.333Zm2.33073.66477v-.33239h-.99889v.33239Zm-7.65815,1.32952h.333v-.99714h-.333Zm-15.64926.99714h-.333v.99715h.333Zm8.32408,2.32666v.3324h.99889v-.3324Zm-36.95889,7.3124v-.3324h-.99889v.3324Zm-4.99444,3.98857v-.33239h-.99889v.33239Zm8.32407,5.31809h.333v-.99715h-.333Zm-13.31852.66476v-.33239h-.99889v.33239ZM8.00411,92.94537h-.333v.99714h.333Zm1.99778,1.99428h-.333v.99714h.333ZM222.76521,2.20537h-.33294v.99714h.33294Zm0,8.97428h-.33294v.99714h.33294Zm-52.60813,9.639v-.33238h-.99889v.33238Zm-5.99334,3.98857v-.33238h-.99889v.33238Zm-16.31519,4.321h-.33295v.99715h.33295Zm-7.99111,3.98857h-.333v.99715h.333Zm-10.65481,4.65334v-.33238h-.99889v.33238Zm-4.99444,2.99143v-.33239h-.99889v.33239Zm-5.99334.66475v.33239h.99889v-.33239Zm10.98778,3.32382v-.33239h-.99889v.33239ZM24.98523,106.90537h-.333v.99714h.333Zm81.57592-58.83143h.333v-.99715h-.333Zm-89.9,63.81714h.333v-.99714h-.333Zm12.65259-.66475v.33236h.99889v-.33236Zm88.90111-63.81716v.33239h.99889v-.33239ZM15.99523,112.88822h-.333v.99715h.333Zm5.99333.99715h-.333v.99714h.333Zm14.98333.99714h-.333v.99714h.333Zm-1.66481,3.65618v-.33236h-.99889v.33236Zm-4.66148,2.32668h.33295v-.99715H30.6456Zm22.64148-.3324v-.33236h-.99889v.33236Zm-6.99223,2.99143V123.192H45.296v.33236ZM98.23708,48.7387v-.33239h-.99889v.33239ZM48.95855,123.85679h-.333v.99715h.333Zm1.66482.99715h.333v-.99715h-.333Zm7.65815,2.659v-.33236h-.99889v.33236Zm20.97667,4.98572v-.33236H78.2593v.33236Zm8.99,0v-.33236H87.2493v.33236Zm1.99777,0v-.33236h-.99888v.33236Zm7.32519,6.31525h.333v-.99715h-.333Zm11.32075.99714h-.333v.99714h.333Zm1.99777.99714h-.333v.99715h.333Zm22.30852,5.31811v.33236h.99889v-.33236Zm37.6248,4.65332h-.33294v.99714h.33294Zm7.65817,3.98857h.33294v-.99714h-.33294Zm-6.32631,2.659v-.33236H171.156v.33236ZM82.58781,55.05394h.333v-.99715h-.333Zm6.99222,0h.333v-.99715H89.58Zm100.8878,106.69428h.33294v-.99714h-.33294Zm-4.32853.33239v.33236h.99889v-.33236Zm12.98555,1.99429v.33236h.99889v-.33236ZM98.23708,56.38346v.33239H99.236v-.33239ZM68.27041,58.37774v.33239h.99889v-.33239Zm31.63149-.33237h-.333v.99714h.333Zm-27.303,1.99428h.333v-.99714h-.333Z"/>
    <path d="M806.4493,304.33965c-.417.195-.83391.39006-1.38469.64762l-3.2492-.83516c-.19034.68356-.31325,1.125-.53346,1.91571-1.58168.58521-3.42265,1.2663-5.03907,1.86438-1.11375-.2128-2.23305-.77439-3.12482-.5251a21.51933,21.51933,0,0,0-5.45384,2.31575,2.76677,2.76677,0,0,1-3.77131-.31623c-.58352.58249-1.167,1.165-2.05564,2.052-.37879-.90242-.75794-1.80589-.83781-1.99611h-3.46795c.32216.629.55255,1.07875.95128,1.8571-1.7708,0-3.38381,0-5.04206.05222a2.011,2.011,0,0,0,.14992-.14257q-.34825-.40734-.69637-.81471l-.315.31441a5.605,5.605,0,0,0,.86141.64287c-2.19117,1.276-2.91132,1.29217-6.272.127-.81544-.2827-1.595-.43044-1.67386.81793-2.16043.33237-4.31094.801-6.48412.95975a60.97782,60.97782,0,0,1-6.89095.003,8.98925,8.98925,0,0,1-2.27884-.76785c-.11437.34867-.29465.898-.5142,1.56714-2.90631,1.20811-5.49139-1.61936-8.8616-1.321.00866.00871-.45567-.45484-.91921-.91665.55822-1.35306,2.78774.5604,2.97448-1.51869,2.39-1.09361,2.58855-1.06141,6.72927-1.048a8.35305,8.35305,0,0,0,2.669-1.03951c.34776.69826.67606,1.3575,1.27934,2.56879.19564-1.36487.31867-2.22307.51041-3.56079l2.45943.90278c.22454-.189.57882-.74359.97109-.77174a17.24244,17.24244,0,0,1,4.46762.02142c1.28574.2506,2.31438-1.65419,3.58653-.26176.41653-.45061.64338-.83242,1.4598-.26605a3.76115,3.76115,0,0,0,2.7606.40283c1.68928-.42815,3.11446-1.43086,5.04334-1.5482,1.89285-.11515,3.71937-1.3173,5.76434-2.11638a13.72151,13.72151,0,0,0,1.3011.68152,2.00446,2.00446,0,0,0-.14985.14254l.6963.81474.315-.3144a5.60445,5.60445,0,0,0-.86141-.64288c.07109-.23011.14675-.72716.31075-.758a22.61449,22.61449,0,0,1,2.39206-.22415c-.33752,1.32579-.62132,2.44046-1.06577,4.18631,1.71446-1.09279,2.90607-1.85233,4.19321-2.67273-.22729-.26353-.52133-.6045-.90043-1.04413.47482-.38172.97585-.78443,1.56985-1.26192.20686.16977.54218.445,1.09144.89587,2.61251-.84359,5.42719-1.65809,8.288-2.28733,2.8512-.62714,5.49688-2.2663,8.47294-1.721a7.6054,7.6054,0,0,1,5.31019-2.10283c3.77711-.23285,6.97375-2.26584,10.31964-4.086.52377.38443,1.00657.73879,1.49022,1.09288,1.25-2.91377,4.42416-2.93665,11.39547-5.24361l-.97426-1.29908c.74484-.13894,1.37317-.25616,2.04673-.42563a2.00751,2.00751,0,0,0-.14985.14251q.34815.40738.6963.81477l.315-.3144a5.60106,5.60106,0,0,0-.86141-.64288c2.78743-1.94206,5.48463-4.19461,8.52872-5.78582a3.72829,3.72829,0,0,0,1.65368-1.77065c.226-.35284,1.15064-.25972,1.759-.36845q.49942.49858.99889.99714v.99715l-.82836.32834.82836.6688q.49941.49858.99889.99714c-.17333,1.62575-1.46218.74585-2.24579.99982q-2.37279,1.99275-4.74643,3.9859-.16443-.41346-.32892-.82692-.335.41342-.67.82692c-2.11606,2.76128-2.10971,2.78222-5.30026,3.74789-.28112.08509-.7177-.34155-1.294-.64043-1.5026,1.065-1.91913,3.70982-4.39349,3.87254l-.32892-.82692-.67.82692h-1.62112c-.18351.54007-.37983,1.11773-.41074,1.20881-3.03544,1.64324-5.73849,3.10655-8.536,4.621-.2204-.19561-.56627-.50247-.95225-.84493-.54475.58253-1.10491,1.18158-1.6285,1.74144-1.33951-.05332-2.737-2.099-3.83247.2537h-2.53624c-.30051.6548-.61339,1.33665-.91518,1.99428h-1.543l-.32892-.82691Zm-27.15955,3.81664-.01006-.88321q-1.34232.181-2.68457.36191.02121.26064.04237.5213Zm42.47589-9.7995h.33288v-.99714h-.33288Zm-19.97778,2.99143h.33288v-.99714h-.33288Zm-2.33078,2.32665v.33242h.99888v-.33242Zm-17.98,2.99143v.33242h.99888v-.33242Zm4.66144.66478h-.33288v.99714h.33288Zm-9.98889,1.99429h-.33288v.99714h.33288Zm-18.97889.99714h-.33288v.99714h.33288Zm12.98555,0h-.33288v.99714h.33288Z"/>
    <path d="M227.09374,7.19108c.27707.1104.7635.17894.79547.33835a19.8133,19.8133,0,0,1,.23243,2.17069l-2.568,1.31821-1.45658-.83582q.49945-.99714.99888-1.99429l1.99778,1.01132Z"/>
    <path d="M108.226,55.05394h2.89837c-.71171,2.32918-2.38215,1.98724-3.89725,1.99428v-.99714Z"/>
    <path d="M240.0793,98.92822l2.289,1.81041-3.28788.23725V98.92822Z"/>
    <path d="M226.09485,5.19679c1.49434.0851.84843,1.23844.99889,1.99429H225.096V6.19393Z"/>
    <path d="M428.8693,83.97108V81.38183l1.99778,1.5921-.99889.99715Z"/>
    <path d="M226.12125,100.69961l-1.90888.16357-.08755-.64388,1.95223-.38125Z"/>
    <path d="M359.36949,101.07687l-2.42019-.68726a8.24262,8.24262,0,0,1,1.39987-.43115C358.49159,99.9383,358.69019,100.31376,359.36949,101.07687Z"/>
    <path d="M675.59485,102.91679q-.62131.49855-1.24251.99715-.3776-.49857-.75526-.99715Z"/>
    <path d="M23.32041,116.87679v1.82269l-.66055.07167-.33834-1.89436Z"/>
    <path d="M165.189,33.891l-1.90889.16358-.08755-.64387,1.95225-.38125Z"/>
    <path d="M89.24708,49.07108l1.2425-.99714.75527.99714Z"/>
    <path d="M40.21105,69.1184l-.81617-.69512.31494-.3144.69632.81478Z"/>
    <path d="M65.27374,73.99965l-.67.82692-.32893-.82692Z"/>
    <path d="M407.80219,83.07839l-.8162-.6951.315-.31441q.34821.40736.69634.81473Z"/>
    <path d="M426.76687,82.8836q.34815-.40737.69634-.81472l.315.31441-.81617.69512Z"/>
    <path d="M332.976,84.96822l.67-.82692.32891.82692Z"/>
    <path d="M168.1593,86.96251l.67-.82692.32892.82692Z"/>
    <path d="M673.59708,86.96252l.67-.82693.32891.82692Z"/>
    <path d="M667.60374,87.95967l.67-.82693q.16452.41343.32892.8269Z"/>
    <path d="M101.23374,89.28917h.99889v.33239h-.99889Z"/>
    <path d="M103.23152,94.93965l-.82837-.6688.82837-.32834Z"/>
    <path d="M379.92374,97.93108l-.67.82693-.32892-.82693Z"/>
    <path d="M796.46041,98.92824l.67-.82693.32892.82691Z"/>
    <path d="M185.14041,15.16823l.67-.82692.32892.82691Z"/>
    <path d="M365.03085,98.82379l.8162.69509-.315.3144-.69634-.81474Z"/>
    <path d="M397.90374,99.593h-.99889V99.2606h.99889Z"/>
    <path d="M245.16419,99.82092l.8162.6951-.315.31441-.69629-.8148Z"/>
    <path d="M255.16725,100.01566l-.69631.81477-.315-.31441.81623-.69506Z"/>
    <path d="M373.022,99.82094l.8162.69509-.315.3144-.69631-.81478Z"/>
    <path d="M135.196,33.11679l.67-.82691.32891.82691Z"/>
    <path d="M461.83263,100.92251l-.67.82691-.32892-.82691Z"/>
    <path d="M648.71527,101.81526q.408.34752.81623.69506l-.315.31439-.69631-.81479Z"/>
    <path d="M677.69725,104.00424l-.69631.81476-.315-.31442q.408-.34755.81617-.69513Z"/>
    <path d="M687.58152,103.91394l-.67.82691-.32892-.82691Z"/>
    <path d="M791.57052,111.98128q-.34815.40743-.69624.81485l-.315-.3144q.40815-.34749.81623-.69506Z"/>
    <path d="M129.20263,47.07679l-.67.82693-.32892-.82693Z"/>
    <path d="M67.27152,131.83394l-.66995.82691-.32894-.82691Z"/>
    <path d="M113.13,138.91837l-.8162-.69509.315-.3144.69632.81476Z"/>
    <path d="M860.3893,138.81394l.82836.6688-.82836.32834Z"/>
    <path d="M860.3893,140.80822q.4995.49854.99889.99715h-.99889Z"/>
    <path d="M126.29641,47.9695l.8162.69509-.315.31441-.69631-.81478Z"/>
    <path d="M861.38819,141.80537q.49941.49858.99889.99714Q861.88766,142.30394,861.38819,141.80537Z"/>
    <path d="M165.16263,149.78251l.67-.82692.32892.82692Z"/>
    <path d="M185.14041,154.76822l.67-.82691.32892.82691Z"/>
    <path d="M203.12041,157.75965l.67-.82691.32892.82691Z"/>
    <path d="M191.23841,165.82714l-.69636.81472-.31495-.31441.81623-.69506Z"/>
    <path d="M876.4762,196.73857l-.69643.81468-.31489-.3144q.408-.34754.81623-.69506Z"/>
    <path d="M842.4093,288.38537q-.335.4134-.67.82691-.16452-.41346-.32892-.82691Z"/>
    <path d="M830.42263,295.36537l-.67.82691q-.16452-.41346-.32892-.82691Z"/>
    <path d="M812.53305,302.241q.40814.34755.81623.69506l-.315.31441q-.34815-.40739-.69625-.81481Z"/>
    <path d="M807.44819,304.33965l-.67.82692q-.16443-.41346-.32892-.82692Z"/>
    <path d="M744.51819,307.99586h-.99889v-.33242h.99889Z"/>
    <path d="M742.42993,310.427q-.40814-.34759-.81617-.69515l.315-.31441.69631.81477Z"/>
    <path d="M765.58539,312.2123l.81611.69515-.315.31441-.69631-.81475Z"/>
    <path d="M225.096,7.19108v.99714l-.99888-.99714Z"/>
  </g>
</svg>
