<svg version="1.1" id="Layer_1" xmlns="http://www.w3.org/2000/svg" xmlns:xlink="http://www.w3.org/1999/xlink" x="0px" y="0px"
	 width="100%" viewBox="0 0 1024 720" enable-background="new 0 0 1024 720" xml:space="preserve">
<path fill="#000000" opacity="1.000000" stroke="none" 
	d="
M1025.000000,181.000000 
	C1025.000000,360.892609 1025.000000,540.785217 1025.000000,721.000000 
	C962.645020,721.000000 900.289490,721.000000 837.395142,720.574158 
	C837.149475,714.528870 837.673645,708.972046 840.802002,703.988647 
	C844.836609,705.487976 846.267029,709.619934 850.677734,711.759521 
	C852.675232,689.921082 849.086792,670.416626 835.723877,652.951599 
	C843.353821,653.369934 847.970520,660.350037 855.191162,662.219727 
	C855.191162,660.937134 855.296143,660.422485 855.170410,659.972412 
	C854.857422,658.852295 854.460083,657.754028 854.060303,656.660217 
	C849.491394,644.159485 842.475830,633.061951 834.307678,622.668030 
	C829.029114,615.950989 822.860596,610.178955 815.610352,605.525269 
	C812.857361,603.758240 809.269470,604.228027 806.734436,602.046143 
	C807.686462,600.347717 809.180237,600.280884 810.397034,600.196838 
	C820.048157,599.530212 827.306213,594.333191 833.582825,587.663391 
	C856.160339,563.671326 875.641113,537.971191 883.856079,504.982819 
	C890.196472,479.521667 900.023987,455.015808 904.210632,428.891357 
	C909.600403,395.259277 916.154541,361.823578 923.233276,328.497131 
	C925.664856,317.049286 925.034119,305.650238 921.642578,294.453552 
	C919.755859,288.224854 916.414185,285.366455 910.489319,285.682251 
	C905.384155,285.954376 900.249878,286.452942 895.334473,288.402283 
	C881.678345,293.818054 869.048950,301.405029 855.578857,307.152222 
	C829.669067,318.207001 804.330933,330.399719 779.211304,343.144440 
	C748.901367,358.522491 723.827332,379.293213 706.784241,409.090637 
	C705.791443,410.826416 705.030334,413.115540 701.527344,413.389648 
	C704.624390,404.019012 708.696472,395.116882 706.917114,385.201874 
	C705.696716,386.861877 704.909302,388.647217 704.204712,390.464691 
	C700.308533,400.514832 695.010254,409.727600 687.364075,417.381256 
	C684.966797,419.780945 682.476746,422.789124 677.587280,422.011353 
	C680.998718,414.347870 685.306641,407.380829 685.562866,399.206055 
	C685.816772,391.105133 683.747131,383.447205 680.443848,376.004547 
	C678.266418,393.558655 677.478516,411.369598 662.597839,424.621460 
	C654.511780,409.377411 657.830566,394.560638 661.566223,379.648346 
	C653.178040,390.306061 647.029053,401.922363 643.716736,414.428009 
	C553.323975,379.032501 464.629608,379.601990 377.465973,424.100830 
	C372.306519,392.821899 366.457245,377.090088 359.075958,374.676422 
	C358.189026,376.756561 359.376709,378.567230 359.916534,380.383606 
	C363.264801,391.649841 364.912445,403.125854 364.316040,414.880249 
	C364.162415,417.908386 364.314362,421.138519 360.887390,423.916260 
	C358.491058,413.054199 355.698853,402.881744 348.189148,393.543640 
	C349.592377,405.559448 354.409668,416.703125 347.320892,428.107452 
	C336.289093,418.746094 332.872284,405.978790 328.120514,393.912445 
	C326.736053,400.231140 328.279877,406.174072 329.267731,412.181000 
	C330.311829,418.529938 334.649017,423.331726 338.060608,429.546295 
	C334.605072,429.205902 333.497894,427.519653 332.361847,425.989288 
	C326.612640,418.244263 320.672943,410.644714 315.470337,402.495361 
	C300.938049,379.732025 280.757019,363.231049 257.331909,350.338043 
	C226.354568,333.288300 193.877808,319.378265 161.844025,304.535095 
	C151.723267,299.845490 142.210129,293.510925 131.446625,290.610779 
	C110.534958,284.976349 107.589668,288.482697 104.350090,307.356903 
	C102.386055,318.799683 104.756386,329.914612 106.900238,340.983521 
	C109.711800,355.499908 113.707733,369.806549 116.077057,384.385010 
	C121.492081,417.703491 126.468651,451.068817 137.324631,483.218719 
	C142.698837,499.134430 145.767227,515.789795 152.423187,531.300964 
	C163.119736,556.228455 181.311813,574.998840 202.150497,591.589294 
	C208.911850,596.972290 216.056793,601.341980 225.004776,601.820251 
	C226.076309,601.877563 227.331207,602.163513 227.650955,603.745239 
	C212.878128,608.033264 204.684921,620.059814 196.042023,631.277405 
	C187.201874,642.751038 180.700623,655.535645 177.372665,670.815002 
	C198.850479,648.345459 204.224792,644.301819 211.930618,645.454956 
	C195.694077,657.823303 190.957214,676.164612 183.917145,693.285339 
	C188.194199,691.747925 190.973343,688.598389 194.215195,686.064758 
	C195.483871,685.073242 196.714996,683.346252 198.516800,684.648987 
	C200.069077,685.771362 198.925171,687.387329 198.582870,688.785706 
	C195.979416,699.421936 195.665283,710.170410 197.000000,721.000000 
	C137.311325,721.000000 77.622643,721.000000 17.524849,720.803345 
	C14.089691,717.622253 9.724292,718.059998 6.194952,716.336853 
	C3.388612,714.966614 1.942688,716.569092 1.000000,719.000000 
	C1.000000,548.311340 1.000000,377.622650 1.282663,206.606384 
	C5.594051,207.737946 10.278793,207.008240 13.891455,209.752548 
	C17.601112,212.570480 21.874977,213.587158 26.183077,212.685699 
	C36.405178,210.546738 43.536892,215.178986 49.747593,222.410950 
	C52.696594,225.844879 56.029446,228.869034 59.916008,231.204391 
	C63.753929,233.510513 67.497589,233.575653 70.846878,230.202774 
	C75.504112,225.512680 79.179871,220.246017 80.495598,213.603882 
	C81.660316,207.724091 82.760391,201.829346 84.055084,195.977951 
	C85.963463,187.352859 90.705299,180.102264 95.844040,173.162567 
	C97.473679,170.961792 100.026100,169.313614 102.836784,168.521255 
	C112.351425,165.838928 122.172394,164.191925 131.937775,164.600662 
	C148.555145,165.296188 165.244370,165.284576 181.771347,167.762192 
	C186.203690,168.426666 190.740189,168.048584 195.227448,167.452927 
	C211.361801,165.311172 227.316498,165.157150 243.296066,169.503799 
	C253.255554,172.212906 263.188385,175.042969 273.164398,177.702652 
	C283.133789,180.360550 292.070251,184.972748 299.919739,191.724869 
	C308.991150,199.528076 317.655609,208.015320 329.642181,211.384277 
	C343.600128,215.307312 356.260834,221.608383 367.567047,230.791855 
	C381.045746,241.739960 396.552246,245.246475 413.577087,242.199951 
	C427.503571,239.707886 441.266266,240.110641 455.267090,242.561905 
	C475.881165,246.171005 496.372711,250.658279 517.617493,250.133713 
	C538.095032,249.628128 558.608093,249.884064 579.023987,248.140961 
	C616.443726,244.946075 650.690735,231.165375 684.392944,215.715042 
	C695.884521,210.446869 707.599915,205.646362 719.754150,202.180069 
	C726.477783,200.262512 732.532288,197.266129 738.020874,193.210556 
	C744.172241,188.665253 750.112000,183.784088 755.781494,178.649002 
	C762.382202,172.670364 769.624390,170.487595 778.330383,172.766266 
	C786.972534,175.028183 795.733826,175.434921 804.583374,173.756073 
	C812.511230,172.252060 820.508484,172.554718 828.482239,173.447311 
	C831.480469,173.782959 834.411133,174.015625 837.394226,173.190765 
	C854.856323,168.362183 871.263794,160.923508 886.514221,151.379044 
	C896.062683,145.403107 904.164429,145.978333 912.612122,152.402832 
	C914.861572,154.113495 917.299927,155.700775 919.151123,157.788483 
	C927.417542,167.110687 937.460388,173.590912 949.172668,177.747849 
	C966.299622,183.826538 983.534790,188.171539 1001.884094,183.801590 
	C1009.451172,181.999451 1017.069458,180.056702 1025.000000,181.000000 
M530.586182,364.114044 
	C534.553650,363.925751 538.567017,364.074097 542.370178,362.623352 
	C543.808411,362.074738 545.122498,361.299988 545.310730,359.581207 
	C545.475586,358.075867 544.598206,356.969543 543.360413,356.385895 
	C538.336304,354.017120 533.123596,352.056183 527.616699,354.438263 
	C524.701965,355.699066 520.433838,356.970276 521.159729,360.908905 
	C521.862549,364.722076 526.163940,363.726410 529.165039,364.110596 
	C529.328369,364.131531 529.496338,364.116913 530.586182,364.114044 
z"/>
<path fill="#000000" opacity="1.000000" stroke="none" 
	d="
M439.054504,629.950439 
	C457.670197,621.992554 476.994507,618.482483 497.340118,618.341492 
	C528.840881,618.123291 559.713867,621.378052 590.136108,629.695007 
	C598.273376,631.919617 604.576416,635.023010 607.135132,643.602966 
	C610.507568,654.911682 605.558289,664.689514 594.273926,668.411072 
	C590.810059,669.553528 587.282410,670.503174 583.781006,671.531006 
	C577.706787,673.314148 576.743530,675.568176 579.740051,681.012451 
	C581.931030,684.993164 580.379333,689.643127 574.940002,693.813049 
	C565.820251,700.804443 556.527527,707.570068 547.315491,714.441284 
	C544.655334,716.425415 542.022095,718.445618 539.188232,720.724670 
	C519.979126,721.000000 500.958221,721.000000 481.468658,721.000000 
	C478.367615,717.817017 474.405457,716.603333 471.112610,714.401978 
	C464.405579,709.918030 458.206207,704.900757 453.665405,698.186218 
	C450.298065,693.206848 448.739380,688.093689 453.529114,682.719727 
	C455.873993,680.088928 451.900909,673.588989 447.829529,673.290222 
	C445.720825,673.135315 443.437195,673.342407 441.440002,674.008179 
	C425.169434,679.432190 418.733917,666.859619 420.000000,654.182434 
	C420.784241,646.329773 425.257233,640.739624 431.068604,635.128784 
	C434.058167,633.122559 436.556335,631.536499 439.054504,629.950439 
M444.704895,637.219177 
	C442.042236,642.829163 444.767609,647.154785 448.115875,651.289307 
	C451.359497,655.294495 454.534851,658.231873 460.753113,656.510986 
	C489.357391,648.594788 518.442261,651.020081 547.492615,653.248413 
	C554.688782,653.800354 561.452271,656.285034 568.501709,657.424194 
	C572.893860,658.133850 578.524231,655.361633 579.432983,652.200439 
	C580.355591,648.990906 577.246704,644.864319 572.481873,643.058533 
	C571.398132,642.647705 570.242126,642.430420 569.126404,642.100586 
	C563.039429,640.300720 556.705933,639.801025 550.516785,638.559631 
	C531.599182,634.765259 512.495361,634.620239 493.375061,635.796204 
	C486.438049,636.222778 479.537872,636.391052 473.218781,633.700745 
	C464.812775,630.121887 456.887817,634.833374 448.714508,634.141174 
	C447.602173,634.046997 446.336945,635.758057 444.704895,637.219177 
z"/>
<path fill="#000000" opacity="1.000000" stroke="none" 
	d="
M344.416656,721.000000 
	C342.081512,699.373474 343.679932,678.522217 357.465363,660.304504 
	C359.976227,661.184082 358.911072,662.939026 358.118347,664.252991 
	C349.910461,677.857849 348.197174,693.001770 347.404724,708.402832 
	C347.195770,712.463989 348.062439,716.336975 348.882111,720.629761 
	C347.611115,721.000000 346.222198,721.000000 344.416656,721.000000 
z"/>
<path fill="#000000" opacity="1.000000" stroke="none" 
	d="
M684.416626,721.000000 
	C689.156860,702.105164 686.796265,683.304749 683.109131,664.435181 
	C686.331116,667.674866 689.200256,670.643494 689.078430,675.737244 
	C688.912170,682.691345 691.468018,689.411194 691.456543,696.471436 
	C691.443481,704.481445 690.963257,712.385376 689.112732,720.601929 
	C687.611084,721.000000 686.222229,721.000000 684.416626,721.000000 
z"/>
<path fill="#000000" opacity="1.000000" stroke="none" 
	d="
M439.274902,629.710938 
	C436.556335,631.536499 434.058167,633.122559 431.265442,634.864441 
	C418.860596,640.705994 406.467133,645.319580 392.953735,646.500244 
	C356.002472,649.728638 325.741119,636.866211 303.052460,607.800659 
	C257.657623,549.647034 290.059631,463.246704 362.373077,448.662842 
	C418.579956,437.327301 472.287201,474.457214 481.454315,530.984131 
	C481.898834,533.725281 482.384460,536.459656 482.987671,539.999573 
	C490.168335,531.367126 499.025513,526.720642 509.151520,524.477234 
	C523.221436,521.360046 536.909058,521.690857 549.764832,529.320068 
	C555.941895,532.985840 555.999451,532.841675 557.525513,525.941772 
	C564.092346,496.250214 580.677002,473.780792 607.175964,459.105133 
	C667.948730,425.447906 743.650879,462.762573 754.417542,531.424500 
	C763.295593,588.042236 723.167786,640.265198 666.007568,646.482544 
	C613.295715,652.216003 565.128357,615.713806 556.615662,563.582214 
	C555.459473,556.501648 554.753845,549.388367 555.562561,542.222046 
	C555.961914,538.683044 554.604919,536.396301 551.742188,534.245178 
	C533.017029,520.174500 503.164398,525.143738 489.113464,537.044800 
	C485.073151,540.466919 482.705261,544.587891 482.522095,549.950378 
	C481.373016,583.589111 466.379944,609.750732 439.274902,629.710938 
M720.107788,476.401642 
	C706.048889,464.769196 690.631348,455.881592 672.344055,452.822723 
	C667.363342,451.989563 662.451477,451.487885 657.907715,454.652435 
	C655.559387,456.288025 652.838745,455.801392 650.158752,455.347473 
	C645.916138,454.628876 641.787964,453.400238 637.331543,453.823822 
	C624.472656,455.046082 613.263245,460.994293 602.883118,467.589081 
	C564.776611,491.799316 550.484619,537.272461 565.590149,579.803223 
	C580.143433,620.778931 622.701904,647.566895 667.569092,641.857788 
	C708.321594,636.672180 745.224976,604.666870 750.405457,557.723999 
	C753.881836,526.223633 743.641663,499.007324 720.107788,476.401642 
M342.221649,633.285706 
	C360.345398,641.918030 379.346771,645.003479 399.097137,641.219116 
	C452.414551,631.002930 485.618042,582.978149 476.626434,529.483032 
	C470.572357,493.464355 439.049561,460.820953 403.598083,453.754059 
	C399.964600,453.029755 396.751190,453.276459 393.661804,455.526947 
	C387.145660,460.273743 379.871704,461.162567 372.276093,458.922546 
	C367.125214,457.403534 362.786896,458.093811 359.137085,462.212311 
	C357.815765,463.703247 356.390472,465.116608 354.904877,466.444916 
	C348.024628,472.596893 341.779999,479.216522 333.349823,483.835602 
	C322.745575,489.645935 311.941681,496.443634 310.872528,510.710663 
	C299.907806,510.888611 294.153717,517.321899 294.988434,528.484619 
	C295.124298,530.301636 295.266602,532.209106 295.908600,533.881775 
	C298.793823,541.399109 297.881866,548.558533 294.390106,555.610718 
	C289.378906,565.731812 289.452057,575.767822 295.072388,585.666443 
	C295.399994,586.243408 295.576599,586.908325 295.919434,587.474121 
	C301.638885,596.913513 306.000885,607.519958 317.421448,612.007629 
	C319.629242,612.875122 321.365936,614.756775 322.474060,616.731506 
	C326.857178,624.542542 334.367767,628.528809 342.221649,633.285706 
z"/>
<path fill="#000000" opacity="1.000000" stroke="none" 
	d="
M284.862518,441.129761 
	C277.584381,432.881836 269.551819,426.100647 259.895325,421.058380 
	C261.779602,424.135986 263.740753,427.169586 265.534912,430.298828 
	C273.373291,443.969818 279.542633,458.276794 281.937958,473.994629 
	C282.572998,478.161621 282.642883,482.311615 281.172089,486.333557 
	C279.965576,489.632568 277.567017,491.823090 274.018280,491.432556 
	C270.146301,491.006470 271.027374,487.475983 271.052887,485.043793 
	C271.157776,475.051208 269.893433,465.420258 264.639984,456.666534 
	C263.739075,455.165375 263.286194,453.258240 260.810822,452.468750 
	C262.212738,459.379578 263.761383,465.942200 264.835754,472.581573 
	C266.170837,480.832031 266.590576,489.127197 264.373474,497.353912 
	C263.704132,499.837616 262.558563,501.964752 260.708160,503.761749 
	C256.180542,508.158783 252.350449,507.766449 249.045059,502.327332 
	C247.911514,500.461914 246.806976,498.614349 245.226700,497.111145 
	C236.791885,489.087433 230.301208,479.673615 225.168121,469.269592 
	C224.617462,468.153442 224.475632,466.596588 221.703049,466.231354 
	C220.258698,484.928375 224.801071,501.498016 237.468460,516.519287 
	C224.846207,516.663330 219.611923,506.357758 211.234375,500.921021 
	C211.151688,509.745392 216.413071,515.699951 222.239075,521.965759 
	C215.786316,522.117737 211.164444,519.450317 206.955841,515.821533 
	C196.432785,506.748169 188.927307,495.379486 182.400497,483.291260 
	C180.143982,479.112000 178.066315,474.836151 175.333939,470.877045 
	C176.959595,501.183228 193.667511,525.013428 210.058701,549.684265 
	C206.168137,550.331604 203.737167,549.104492 201.286743,547.764832 
	C186.172577,539.501526 177.606750,525.587402 170.056107,510.996002 
	C158.954102,489.541687 153.921783,466.393738 151.503418,442.495514 
	C149.993240,427.571869 148.814621,412.655548 148.695099,397.660339 
	C148.679581,395.715118 148.190384,393.674011 149.422318,391.612244 
	C151.620041,392.884521 151.229172,394.990967 151.321854,396.850891 
	C151.942902,409.310638 152.237701,421.842926 154.573807,434.097870 
	C156.469421,444.041992 156.523666,454.340881 160.171555,463.952820 
	C160.895370,465.860016 160.742004,469.509338 163.267319,468.710236 
	C165.953812,467.860168 170.028717,466.919861 170.152390,462.681641 
	C170.263840,458.862183 169.913849,455.031189 169.940826,451.206512 
	C169.954025,449.340302 169.476471,447.146301 171.973816,445.887543 
	C173.924332,447.370850 173.784470,449.718872 174.230270,451.676208 
	C176.732727,462.663483 180.689865,472.947235 187.671967,481.963379 
	C189.677597,484.553345 190.225418,488.031982 192.792999,490.442505 
	C197.174484,494.555969 200.407730,494.295258 202.698013,488.826111 
	C204.099487,485.479401 205.465927,484.912964 208.004807,487.488739 
	C209.620224,489.127655 211.100845,491.448639 213.848724,490.106293 
	C216.627563,488.748840 217.840225,486.243195 217.757660,483.115112 
	C217.537979,474.791870 217.232101,466.459137 218.657196,458.199921 
	C219.260941,454.700836 219.035049,450.909393 221.684494,448.026276 
	C224.201538,448.436035 223.906967,450.363739 224.201416,451.899384 
	C224.607681,454.018219 224.773636,456.201965 225.375839,458.260406 
	C226.467911,461.993134 228.575668,462.511292 231.562805,459.884796 
	C232.557449,459.010254 233.355438,457.914581 234.263855,456.939087 
	C240.578018,450.158722 248.122452,451.921783 250.821060,460.921936 
	C251.629272,463.617432 251.847290,466.487335 252.382111,469.268433 
	C252.633499,470.575653 252.837860,471.926178 253.337814,473.144501 
	C254.520279,476.026001 255.677155,480.393158 259.042816,479.709595 
	C262.806030,478.945251 260.928162,474.643768 260.500000,471.968323 
	C258.789093,461.276947 256.856628,450.613708 252.150360,440.705566 
	C251.667664,439.689392 251.031738,438.626312 251.677368,437.358246 
	C253.308731,436.159515 254.478607,437.298218 255.545715,438.299286 
	C257.728333,440.346771 259.751556,442.566650 261.968567,444.574005 
	C263.316986,445.794983 265.045105,447.167999 266.834503,445.797119 
	C268.602173,444.442902 267.181793,442.735535 266.467682,441.313293 
	C261.750031,431.917725 256.695953,422.767883 249.494431,414.924805 
	C247.091019,412.307220 243.623016,411.344910 241.393311,408.384796 
	C245.859726,408.261444 249.862045,409.690063 253.755981,411.733612 
	C263.108124,416.641602 271.069794,423.568268 279.715424,429.500275 
	C281.481964,430.712341 283.063721,432.306915 285.638916,431.623322 
	C285.806946,426.524261 283.463318,422.246063 281.098053,418.102081 
	C264.844604,389.626007 242.484512,367.771973 212.037781,354.714722 
	C208.989426,353.407410 206.234802,352.873535 202.928070,354.039276 
	C198.722946,355.521759 189.321777,350.748932 188.199081,346.554871 
	C187.687317,344.643036 185.856323,344.293701 185.272079,342.750916 
	C192.292038,340.850952 217.891769,350.698212 235.258087,362.394348 
	C272.098236,387.205933 291.881836,423.483429 303.425476,465.240662 
	C296.931427,457.591766 291.835815,448.847290 284.862518,441.129761 
M170.352325,493.039825 
	C167.555008,493.768066 167.961014,495.977905 168.547119,497.773193 
	C169.303558,500.090271 170.531204,502.267303 171.684708,504.436157 
	C172.467377,505.907745 172.786438,508.631683 175.177826,507.627014 
	C177.640778,506.592255 177.144104,503.807068 176.271713,501.976837 
	C174.808716,498.907562 172.736755,496.128510 170.352325,493.039825 
M179.002853,510.543640 
	C177.265091,512.364807 176.866028,514.185791 178.976746,516.364197 
	C181.719299,514.434326 180.424088,512.626282 179.002853,510.543640 
z"/>
<path fill="#000000" opacity="1.000000" stroke="none" 
	d="
M853.564026,450.554504 
	C854.674622,444.492126 855.721619,438.845337 856.862061,432.694366 
	C860.461060,436.837097 858.357910,471.243134 853.932556,488.286926 
	C849.204651,506.495972 840.620972,522.836914 828.086792,538.373474 
	C833.479614,538.114075 835.527039,534.959045 837.441650,532.498047 
	C849.578186,516.897461 859.795837,500.207001 865.171387,480.940247 
	C870.563721,461.613403 873.284729,441.867920 874.715820,421.892639 
	C875.477112,411.266876 876.637390,400.669525 877.637146,390.061218 
	C877.709412,389.294983 877.941711,388.543823 878.108032,387.745209 
	C879.457275,388.264923 879.318787,389.167725 879.332703,389.925995 
	C879.916077,421.715057 877.453491,453.149628 868.143799,483.752197 
	C862.851257,501.149719 854.701294,517.072815 843.267212,531.277771 
	C836.245422,540.001221 827.078979,546.379333 818.814758,547.965210 
	C818.274658,546.049316 819.727295,544.916016 820.542236,543.642944 
	C826.828186,533.823975 833.843140,524.487671 839.558838,514.285278 
	C846.904236,501.173950 851.245483,487.108429 853.501343,472.337341 
	C853.747192,470.727417 853.534485,469.047424 852.795227,467.100250 
	C850.824890,471.154816 848.995667,475.285400 846.858887,479.250244 
	C839.387329,493.113953 831.160889,506.443573 817.873108,515.639771 
	C807.097656,523.097229 795.607056,527.558533 781.750793,522.513733 
	C786.132080,511.700775 792.166870,501.363647 792.787476,488.338654 
	C787.879333,493.079163 786.778137,500.018219 779.440735,503.105896 
	C782.492126,487.989685 783.187866,473.728882 782.487000,459.200745 
	C780.550415,459.990509 780.340027,461.624847 779.707031,462.877533 
	C774.861877,472.465485 767.941528,480.179321 759.059143,486.192657 
	C753.480835,489.969147 748.369568,488.091919 746.522461,481.504517 
	C745.114319,476.482941 746.187439,471.549927 747.264832,466.687561 
	C751.323486,448.371857 759.259033,431.806396 770.890503,415.632324 
	C751.006226,427.540588 737.374390,443.998352 725.463318,462.211578 
	C734.088989,428.220520 749.457153,398.170959 775.193665,374.144897 
	C793.781433,356.792389 815.719849,345.652618 840.660583,340.407379 
	C818.444702,350.643829 795.369629,359.374725 777.321655,376.778687 
	C759.372498,394.087280 745.406372,414.026672 737.430786,437.979370 
	C752.341187,424.817902 766.285767,410.327393 786.448120,405.562439 
	C765.880310,421.654968 757.257874,444.385284 750.860413,468.357452 
	C749.831055,472.214417 749.531921,476.262482 750.240906,480.261078 
	C751.277405,486.106506 754.179626,487.217834 758.759521,483.559509 
	C771.041504,473.749084 778.946655,461.160828 782.771362,445.925293 
	C783.552673,442.812592 783.847839,439.451385 786.775818,435.450043 
	C786.775818,453.766907 786.775818,470.686432 786.775818,487.605957 
	C792.501465,481.909760 791.791504,474.140503 795.002808,467.546875 
	C798.752197,476.439178 796.545349,485.479919 795.536194,494.404419 
	C794.479248,503.750977 790.061829,512.065674 785.851685,521.253906 
	C795.791260,522.455566 803.982239,519.753845 811.682617,515.298645 
	C825.498474,507.305145 833.968628,494.508087 841.573669,481.081665 
	C846.930786,471.623840 850.894104,461.549683 853.564026,450.554504 
z"/>
</svg>