<svg id="logo" role="img" viewBox="0 0 268 263" version="1.1" xmlns="http://www.w3.org/2000/svg" xmlns:xlink="http://www.w3.org/1999/xlink">
    <g transform="matrix(1,0,0,1,-1.42109e-14,-103)">
        <g transform="matrix(1.00381,0,0,1.00239,120.709,-0.451051)">
            <rect x="-120.25" y="103.205" width="266.527" height="261.802" style="fill:none;"/>
            <g transform="matrix(0.996203,0,0,0.997618,-1075.86,-189.967)">
                <g transform="matrix(0.289553,0,0,0.314934,47.4405,761.911)">
                    <g transform="matrix(1,0,0,1,146.011,-24.9755)">
                        <g transform="matrix(0.857813,0,0,0.857813,898.772,371.83)">
                            <circle cx="2948.77" cy="-1690.79" r="103.745" style="fill:rgb(86,186,151);"/>
                        </g>
                        <g transform="matrix(0.857813,0,0,0.857813,606.759,348.098)">
                            <circle cx="2948.77" cy="-1690.79" r="103.745" style="fill:rgb(86,186,151);"/>
                        </g>
                        <g transform="matrix(1,0,0,1,483.113,600.373)">
                            <path d="M2633.33,-1445.46C2633.33,-1445.46 2588.41,-1520.03 2586.11,-1541.67C2584.51,-1556.72 2602.71,-1570.56 2616.6,-1575.3C2635.13,-1581.63 2661.34,-1581.46 2677.18,-1578.11C2697.34,-1573.85 2732.47,-1561.52 2740.55,-1549.73C2748.62,-1537.94 2735.36,-1518.16 2725.63,-1507.38C2708.94,-1488.92 2708.96,-1488.82 2685.46,-1471.41C2670.37,-1460.24 2633.33,-1445.46 2633.33,-1445.46Z" style="fill:rgb(55,55,54);"/>
                        </g>
                    </g>
                    <g transform="matrix(1,0,0,1,629.123,575.398)">
                        <path d="M2946.19,-1386.16C2945.98,-1385.61 2946.05,-1384.97 2945.85,-1384.42C2945.85,-1384.42 2910.4,-1359.48 2889.19,-1349.56C2878.41,-1344.51 2831.58,-1325.16 2805.33,-1324.97C2789.53,-1324.85 2773.83,-1330.09 2759.33,-1335.5C2739.31,-1342.98 2714.88,-1363.83 2695.76,-1367.99C2681.33,-1371.14 2671.95,-1365.15 2644.94,-1365.45C2621.55,-1365.71 2584.83,-1379.41 2562.55,-1402.95C2538.78,-1428.06 2524.71,-1468.09 2526.71,-1501.18C2527.52,-1514.62 2530.39,-1526.24 2532.44,-1533.62C2534.6,-1541.38 2537.67,-1549.08 2538.19,-1550.39C2541.25,-1558.06 2547.85,-1573.31 2558.83,-1585.67C2563.29,-1590.68 2568.29,-1595.3 2579.06,-1601.02C2593.06,-1608.46 2606.43,-1611.85 2616.38,-1613.8C2618.61,-1614.23 2630.5,-1616.56 2644.53,-1617.17C2656.65,-1617.69 2668.62,-1616.78 2668.87,-1616.66C2669.57,-1616.33 2670.42,-1616.18 2670.94,-1615.62C2670.95,-1615.6 2671.74,-1613.54 2671.73,-1613.53C2671.41,-1612.87 2671.31,-1612.04 2670.77,-1611.55C2669.65,-1610.51 2669.51,-1610.7 2667.99,-1610.65C2656.31,-1610.23 2640.7,-1607.94 2628.86,-1605.13C2626.73,-1604.62 2605.33,-1599.83 2587.33,-1588.72C2586.49,-1588.2 2581.43,-1585.08 2577.28,-1581.54C2563.28,-1569.59 2554.39,-1542.26 2554.18,-1541.63C2550.89,-1532.03 2545.33,-1512.29 2545.39,-1494.21C2545.39,-1493.89 2544.47,-1467.07 2559.84,-1436.99C2570.89,-1415.37 2583.8,-1405.22 2593.89,-1398.64C2608.48,-1389.15 2628.82,-1380.51 2645.94,-1379.87C2673.11,-1378.84 2682.57,-1385.39 2701.45,-1379.58C2721.75,-1373.34 2745.36,-1352.31 2763.07,-1344.92C2783.04,-1336.59 2797.37,-1332.23 2812.91,-1333.61C2838.79,-1335.91 2878.55,-1350.31 2890.25,-1355.64C2890.59,-1355.8 2905.99,-1362.44 2938.11,-1382.49C2941.14,-1384.38 2943.74,-1386.04 2944.45,-1386.5C2945.25,-1387.01 2945.25,-1386.34 2946.19,-1386.16Z"/>
                    </g>
                    <g transform="matrix(1,0,0,1,629.123,575.398)">
                        <path d="M2631.76,-1444.52C2616.76,-1466.93 2607.23,-1483.05 2605.2,-1486.46C2578.79,-1531.11 2578.63,-1540.88 2579.49,-1547.44C2581.57,-1563.47 2598.91,-1577.58 2614.49,-1583.09C2632.82,-1589.57 2659.42,-1590.97 2680.49,-1586.18C2696.95,-1582.43 2724.12,-1572.69 2738.16,-1562.19C2744.58,-1557.38 2751.34,-1550.63 2749.82,-1538.26C2749.66,-1536.97 2748.68,-1524.38 2732.52,-1506.24C2731.77,-1505.39 2720.38,-1493.17 2713.95,-1487.43C2707.87,-1482 2701.74,-1477.75 2687.83,-1468.2C2676.06,-1460.11 2653.47,-1450.98 2638.81,-1445.52C2636.98,-1444.84 2633.96,-1443.73 2633.73,-1443.68C2633.3,-1443.58 2632.95,-1443.67 2632.88,-1443.69C2632.18,-1443.86 2632.26,-1444 2631.76,-1444.52ZM2634.13,-1447.84C2642.58,-1451.69 2670.88,-1464.9 2683.09,-1474.63C2705.23,-1492.28 2705.31,-1492.42 2721.28,-1511.3C2730.73,-1522.45 2739.91,-1539.16 2734.42,-1545.84C2729.37,-1551.98 2710.32,-1560.69 2686.39,-1567.09C2674.92,-1570.16 2668.63,-1571 2660.76,-1571.51C2660.36,-1571.54 2631.45,-1573.7 2614.03,-1565.67C2601.82,-1560.04 2591.82,-1550.38 2592.79,-1541.63C2592.8,-1541.56 2592.89,-1536.21 2600.79,-1516.99C2604.94,-1506.9 2609.88,-1496.37 2613.2,-1489.45C2622.64,-1469.81 2631.21,-1453.4 2634.13,-1447.84Z"/>
                    </g>
                    <g transform="matrix(1,0,0,1,629.123,575.398)">
                        <path d="M2652.6,-1347.93L2653.68,-1348.23C2659.05,-1333.27 2668.07,-1310.94 2675.91,-1296.16C2682.78,-1283.21 2686.89,-1279.08 2689.87,-1275.94C2700.28,-1264.97 2710.94,-1257.77 2723.75,-1252.92C2729.64,-1250.69 2734.47,-1249.25 2743.38,-1246.72C2747.1,-1245.66 2759.08,-1242.64 2773.66,-1243.48C2781.21,-1243.91 2792.57,-1245.52 2801.62,-1249.56C2818.1,-1256.91 2846.25,-1278.44 2848.3,-1279.98C2852.71,-1283.3 2855.68,-1285.64 2855.68,-1285.64C2856,-1285.71 2856.35,-1285.53 2856.67,-1285.6C2856.59,-1285.28 2856.71,-1284.93 2856.63,-1284.61C2856.62,-1284.59 2850.66,-1278.29 2845.36,-1273.11C2823.61,-1251.85 2812.56,-1244.41 2807.39,-1241.22C2807.13,-1241.06 2801.71,-1237.33 2790.51,-1233.87C2786.84,-1232.74 2775.22,-1229.19 2758.83,-1229.65C2749.58,-1229.91 2741.44,-1232.03 2739.97,-1232.41C2738.53,-1232.79 2732.23,-1234.59 2727.36,-1236.29C2710.24,-1242.25 2694.1,-1251.34 2678.85,-1272.41C2676.51,-1275.63 2669.94,-1284.43 2660.47,-1316.63C2659.22,-1320.88 2655.61,-1333.98 2652.6,-1347.93Z"/>
                    </g>
                    <g transform="matrix(1,0,0,1,629.123,575.398)">
                        <path d="M2858.26,-1676.77C2857.45,-1675.98 2857.37,-1676.01 2856.23,-1676.03C2854.42,-1676.05 2854.6,-1676.63 2848.22,-1681.18C2846.2,-1682.62 2834.95,-1690.66 2821.04,-1696.18C2804.47,-1702.76 2793.18,-1702.35 2790.39,-1702.23C2772.67,-1701.53 2753.38,-1693.46 2743.85,-1688.34C2742.78,-1687.76 2742.73,-1687.75 2741.53,-1687.96C2741.51,-1687.96 2739.67,-1689.07 2739.67,-1689.08C2739.53,-1689.79 2739.12,-1690.5 2739.25,-1691.21C2739.5,-1692.65 2739.66,-1692.62 2740.77,-1693.56C2752.09,-1703.06 2763.81,-1708.6 2765.97,-1709.62C2773.66,-1713.26 2780.62,-1714.94 2781.93,-1715.26C2791.62,-1717.61 2799.03,-1716.91 2800.51,-1716.77C2807.54,-1716.1 2825.47,-1712.64 2847.1,-1692.75C2848.42,-1691.54 2853.76,-1686.62 2858.3,-1681.02C2859.08,-1680.06 2859.07,-1678.99 2859.07,-1678.8C2859.06,-1677.65 2859.08,-1677.58 2858.26,-1676.77Z"/>
                    </g>
                    <g transform="matrix(0.857813,0,0,0.857813,752.77,323.123)">
                        <path d="M2948.77,-1798.03C3007.95,-1798.03 3056.01,-1749.98 3056.01,-1690.79C3056.01,-1631.6 3007.95,-1583.55 2948.77,-1583.55C2889.58,-1583.55 2841.53,-1631.6 2841.53,-1690.79C2841.53,-1749.98 2889.58,-1798.03 2948.77,-1798.03ZM2948.77,-1791.04C2893.44,-1791.04 2848.52,-1746.12 2848.52,-1690.79C2848.52,-1635.46 2893.44,-1590.54 2948.77,-1590.54C3004.1,-1590.54 3049.01,-1635.46 3049.01,-1690.79C3049.01,-1746.12 3004.1,-1791.04 2948.77,-1791.04Z"/>
                    </g>
                    <g transform="matrix(0.857813,0,0,0.857813,1044.78,346.855)">
                        <path d="M2948.77,-1798.03C3007.95,-1798.03 3056.01,-1749.98 3056.01,-1690.79C3056.01,-1631.6 3007.95,-1583.55 2948.77,-1583.55C2889.58,-1583.55 2841.53,-1631.6 2841.53,-1690.79C2841.53,-1749.98 2889.58,-1798.03 2948.77,-1798.03ZM2948.77,-1791.04C2893.44,-1791.04 2848.52,-1746.12 2848.52,-1690.79C2848.52,-1635.46 2893.44,-1590.54 2948.77,-1590.54C3004.1,-1590.54 3049.01,-1635.46 3049.01,-1690.79C3049.01,-1746.12 3004.1,-1791.04 2948.77,-1791.04Z"/>
                    </g>
                    <g transform="matrix(1,0,0,1,629.123,575.398)">
                        <path d="M3107.68,-1858.96C3107.88,-1859.54 3107.52,-1860.21 3107.72,-1860.79C3107.72,-1860.8 3130.73,-1884.72 3159.49,-1912.55C3176.27,-1928.79 3192.15,-1943.12 3195.04,-1945.72C3226.6,-1974.19 3241.08,-1984.32 3250.66,-1990.94C3258.49,-1996.35 3283.25,-2013.33 3317.19,-2028.88C3323.52,-2031.78 3350.46,-2043.84 3375.92,-2048.62C3383.44,-2050.03 3409.08,-2054.67 3425.36,-2044.17C3442.54,-2033.09 3443.53,-2007.19 3442.81,-1990.08C3441.41,-1956.7 3428.7,-1909.52 3428.03,-1906.92C3427.76,-1905.88 3420.14,-1876.63 3416.95,-1866.75C3410.7,-1847.37 3400.83,-1824.68 3395.89,-1813.5C3393.4,-1807.87 3374.65,-1766.13 3345.43,-1710.73C3338.95,-1698.44 3334.41,-1690.1 3334.4,-1690.09C3334.09,-1689.83 3333.85,-1689.45 3333.47,-1689.32C3333.46,-1689.31 3332.3,-1689.38 3332.3,-1689.38C3332.05,-1689.68 3331.67,-1689.91 3331.55,-1690.27C3331.28,-1691.07 3331.43,-1691.09 3331.78,-1691.86C3334.12,-1697.09 3354.74,-1743.22 3372.16,-1787.05C3373.58,-1790.62 3385.78,-1821.26 3394.05,-1846.13C3401.09,-1867.29 3402.96,-1876.37 3406.84,-1894.16C3407.09,-1895.27 3412,-1917.24 3416.03,-1940.69C3417.82,-1951.07 3426.14,-1999.22 3417.89,-2019.39C3415.82,-2024.44 3413.56,-2025.88 3410.35,-2027.05C3397.33,-2031.8 3368.02,-2027.83 3329.63,-2012.6C3328.67,-2012.22 3291.49,-1998.39 3250.16,-1971.71C3218.4,-1951.21 3176.29,-1915.92 3160.85,-1903.04C3158.27,-1900.89 3134.77,-1881.34 3109.51,-1858.93C3109.13,-1858.59 3109.17,-1858.47 3108.67,-1858.48C3108.11,-1858.49 3108.19,-1858.71 3107.68,-1858.96Z"/>
                    </g>
                    <g transform="matrix(1,0,0,1,629.123,575.398)">
                        <path d="M3122.74,-1903.03C3122.44,-1902.29 3122.41,-1902.26 3121.67,-1901.94C3121.21,-1901.75 3120.67,-1901.88 3120.17,-1901.94C3119.88,-1901.98 3114.84,-1904.01 3096.83,-1909.61C3096.73,-1909.64 3042.72,-1927.13 2983.32,-1936.86C2931.11,-1945.41 2896.61,-1944.89 2872.39,-1943.25C2851.94,-1941.86 2827.24,-1938.49 2805.55,-1934.25C2803.11,-1933.77 2777.64,-1929.18 2744.09,-1919.52C2731.18,-1915.8 2723.42,-1913.08 2723.42,-1913.08C2723.02,-1913.05 2722.6,-1912.92 2722.24,-1913.08C2722.22,-1913.08 2721.38,-1913.94 2721.38,-1913.95C2721.39,-1914.34 2721.25,-1914.76 2721.4,-1915.13C2721.55,-1915.49 2721.92,-1915.73 2722.23,-1915.97C2722.24,-1915.98 2733.93,-1921.45 2752.82,-1928.62C2760.86,-1931.67 2783.6,-1939.81 2805.8,-1945.71C2826.93,-1951.33 2857.97,-1958.38 2892.4,-1959.8C2918.44,-1960.87 2944.63,-1957.75 2970.6,-1952.99C2974.44,-1952.28 2992.03,-1948.84 3010.78,-1943.92C3019.98,-1941.5 3053.12,-1932.82 3097.51,-1915.58C3109.07,-1911.09 3121.53,-1905.7 3121.66,-1905.6C3122.62,-1904.76 3122.67,-1904.64 3122.72,-1904.53C3123.03,-1903.81 3123.03,-1903.77 3122.74,-1903.03Z"/>
                    </g>
                    <g transform="matrix(1,0,0,1,629.123,575.398)">
                        <path d="M2594.9,-1766.76C2594.39,-1767.05 2593.76,-1767.13 2593.24,-1767.42C2593.24,-1767.43 2585.15,-1784.59 2572,-1819.69C2571.75,-1820.35 2564.44,-1839.74 2554.51,-1869.46C2545.02,-1897.85 2532.79,-1934.37 2526.27,-1970.38C2524.11,-1982.32 2523.28,-1992.54 2523.12,-1994.48C2522.35,-2003.95 2520.95,-2026.43 2528.7,-2044.69C2530.91,-2049.9 2537.02,-2059.91 2552.63,-2060.83C2563.8,-2061.49 2579.02,-2057.67 2602.73,-2044.84C2603.38,-2044.49 2619.11,-2035.95 2639.33,-2021.53C2655.26,-2010.16 2668.14,-1999.78 2670.58,-1997.81C2701.99,-1972.46 2723.73,-1951.62 2723.75,-1951.59C2723.91,-1951.27 2724.19,-1950.99 2724.21,-1950.63C2724.21,-1950.62 2723.89,-1949.63 2723.88,-1949.62C2723.56,-1949.45 2723.28,-1949.15 2722.91,-1949.12C2722.57,-1949.1 2722.24,-1949.32 2721.93,-1949.48C2721.91,-1949.48 2715.47,-1954.48 2704.73,-1962.29C2703.83,-1962.95 2678.49,-1981.85 2646.92,-2001.98C2644.71,-2003.38 2625.95,-2015.36 2608.62,-2024.58C2607.4,-2025.22 2594.79,-2031.95 2583.5,-2036.54C2581.16,-2037.49 2553.41,-2049.11 2546.37,-2040.12C2544.72,-2038.02 2542.52,-2031.73 2541.29,-2024.65C2538.26,-2007.26 2539.94,-1986.97 2543.02,-1966.55C2547.2,-1938.81 2555.22,-1907.21 2564.78,-1870.76C2576.55,-1825.87 2588.66,-1786.87 2595.42,-1768.81C2595.47,-1768.68 2595.61,-1768.55 2595.57,-1768.41C2595.35,-1767.54 2595.12,-1767.62 2594.9,-1766.76Z"/>
                    </g>
                </g>
                <g transform="matrix(0.921515,0,0,1.05394,-1954.87,1261.13)">
                    <path d="M3390.59,-726.653C3393.33,-718.858 3395.28,-709.571 3393.12,-705.309C3391.04,-701.229 3387.78,-701.537 3387.2,-701.592C3384.13,-701.883 3381.01,-704.344 3375.03,-704.433C3359.99,-704.658 3353.69,-701.074 3339.38,-693.756C3339.29,-693.711 3339.22,-693.621 3339.12,-693.622C3338.75,-693.626 3338.78,-693.763 3338.42,-693.767C3338.6,-693.902 3338.41,-694.239 3338.59,-694.374C3338.89,-694.6 3344.98,-697.976 3345.53,-698.286C3355.58,-703.858 3361.82,-706.582 3374.98,-707.114C3382.41,-707.415 3386.94,-704.188 3388.1,-704.996C3388.25,-705.097 3389.02,-705.393 3389.99,-708.158C3391.18,-711.526 3391.28,-718.448 3389.03,-727.42C3388.92,-727.88 3389.38,-728.251 3389.93,-728.026C3391.19,-727.505 3391.15,-727.446 3393.47,-726.302C3401.81,-722.179 3404.75,-716.932 3406.51,-713.965C3407.31,-712.623 3407.93,-711.466 3408.47,-710.548C3408.5,-710.771 3408.55,-711.038 3408.61,-711.37C3409.22,-714.504 3410.21,-721.166 3406.21,-735.612C3405.24,-739.115 3404.97,-739.207 3405.37,-739.511C3405.59,-739.685 3405.93,-739.661 3406.11,-739.504C3406.18,-739.452 3409.05,-736.842 3410.01,-735.905C3417.58,-728.496 3419.99,-722.116 3422.34,-717.256C3422.57,-719.783 3422.88,-726.353 3421.39,-734.126C3420.02,-741.25 3417.78,-747.043 3417.78,-747.208C3417.78,-747.483 3418.09,-747.799 3418.56,-747.64C3419.28,-747.396 3424.05,-745.989 3428.58,-741.988C3431.41,-739.491 3434.78,-734.362 3437.02,-731.52C3437.07,-733.058 3436.85,-735.71 3435.78,-740.515C3434.22,-747.523 3432.23,-752.671 3428.32,-760.68C3428.02,-761.296 3425.2,-767.141 3422.25,-771.53C3422.22,-771.573 3421.68,-772.124 3422.17,-772.542C3422.42,-772.761 3422.63,-772.816 3424.33,-772.312C3434.1,-769.426 3439.01,-762.54 3439.91,-761.378C3441.08,-759.866 3442.03,-758.511 3442.82,-757.341C3442.56,-762.91 3441.44,-770.752 3436.64,-778.48C3432.68,-784.855 3426.92,-790.499 3422.71,-792.803C3422.63,-792.848 3422.51,-792.86 3422.47,-792.937C3422.28,-793.252 3422.44,-793.293 3422.26,-793.609C3422.52,-793.621 3422.76,-793.777 3423.03,-793.79C3423.14,-793.795 3424.32,-793.109 3424.42,-793.045C3428.3,-790.774 3438.22,-782.879 3442.89,-771.003C3443.79,-768.735 3446.11,-762.402 3446.32,-753.49C3446.34,-752.888 3446.59,-751.163 3444.96,-750.786C3443.3,-750.401 3442.54,-752.025 3441.59,-753.699C3437.82,-760.356 3434.55,-766.339 3426.17,-770.171C3425.49,-770.479 3424.85,-770.734 3424.29,-770.936C3426.03,-768.389 3429.42,-763.075 3434.1,-753.83C3437.89,-746.328 3442.66,-731.723 3440.24,-727.989C3439.74,-727.223 3437.59,-725.132 3435.24,-728.198C3432.85,-731.313 3430.15,-737.955 3426.33,-741.621C3424.08,-743.773 3421.37,-745.466 3419.27,-746.344C3421.16,-741.746 3425.28,-730.805 3425.53,-718.472C3425.59,-716.07 3425.64,-712.084 3423.18,-711.911C3421.27,-711.776 3420.61,-713.959 3419.31,-717.459C3417.27,-722.93 3415,-729.556 3407.14,-737.302C3407.09,-737.352 3407.03,-737.41 3406.96,-737.475C3409.15,-731.552 3411.5,-723.819 3412.08,-717.993C3412.3,-715.854 3412.48,-711.768 3411.94,-709.711C3411.75,-708.995 3410.96,-705.549 3408.5,-706.151C3406.28,-706.697 3405.68,-710.912 3402.59,-716.341C3401.72,-717.878 3399.23,-722.099 3392.37,-725.897C3391.93,-726.136 3391.21,-726.422 3390.59,-726.653Z"/>
                </g>
                <g transform="matrix(0.864888,0,0,0.940701,-1765.8,1171.3)">
                    <path d="M3388.86,-861.796C3387.18,-861.567 3384.06,-860.618 3380.28,-857.886C3373.79,-853.183 3373.77,-850.799 3372.89,-851.305C3372.13,-851.742 3373.11,-856.806 3374.12,-859.971C3375.93,-865.696 3383.02,-885.105 3410.15,-893.21C3411.22,-893.532 3411.3,-893.655 3412.28,-893.138C3412.3,-893.129 3413.33,-891.894 3413.33,-891.885C3413.08,-890.104 3413.24,-889.69 3411.34,-889.284C3380.02,-882.594 3373.69,-858.045 3373.39,-852.456C3375.28,-854.819 3380.16,-861.118 3386.82,-863.972C3391.02,-865.773 3393.67,-864.293 3392.16,-861.215C3389.47,-855.727 3385.11,-851.768 3386.82,-844.329C3386.82,-844.329 3386.82,-844.33 3386.82,-844.331C3386.84,-844.344 3387.56,-844.309 3389.62,-845.545C3392.2,-847.084 3393.06,-848.488 3393.26,-848.814C3396.25,-853.679 3396.14,-858.36 3398.81,-858.181C3400.08,-858.096 3400.7,-856.909 3401.12,-853.609C3402.03,-846.506 3400.03,-841.711 3399.62,-840.744C3398.63,-838.36 3397.5,-836.909 3396.92,-835.954C3398.7,-836.391 3404.02,-838.157 3406.74,-841.85C3409,-844.927 3410.63,-849.587 3411.42,-850.216C3411.76,-850.489 3412.87,-850.926 3413.81,-849.397C3416.15,-845.587 3418.14,-829.809 3407.32,-822.81C3406.87,-822.517 3404.35,-820.844 3400.85,-820.581C3400.78,-820.576 3400.7,-820.538 3400.64,-820.568C3400.5,-820.638 3400.42,-820.792 3400.28,-820.862C3400.41,-820.949 3400.47,-821.106 3400.6,-821.193C3400.63,-821.215 3406.23,-821.173 3410.64,-827.456C3415.53,-834.413 3413.85,-844.454 3412.28,-847.803C3410.9,-845.355 3408.95,-841.155 3405.52,-838.757C3402.19,-836.437 3396.84,-834.817 3396.19,-835.173C3394.9,-835.87 3398.59,-838.127 3399.26,-845.273C3399.54,-848.151 3399.08,-851.906 3398.34,-854.424C3397.15,-852.156 3395.56,-848.306 3392.86,-846.322C3390.6,-844.661 3386.52,-842.691 3386.01,-843.973C3383.28,-850.885 3387.3,-857.49 3388.86,-861.796ZM3386.8,-844.257C3386.79,-844.253 3386.78,-844.248 3386.76,-844.244C3386.77,-844.22 3386.77,-844.197 3386.77,-844.182C3386.79,-844.201 3386.79,-844.229 3386.8,-844.257Z"/>
                </g>
                <g transform="matrix(0.864888,0,0,0.940701,-1765.8,1171.3)">
                    <path d="M3171.1,-837.519C3169.54,-837.927 3164.56,-837.687 3162.9,-837.748C3162.48,-837.763 3157.4,-837.823 3157.35,-839.966C3157.33,-841.225 3161.74,-842.416 3164.24,-842.408C3165.92,-842.402 3169.24,-841.58 3170.13,-841.844C3169.13,-842.795 3165.16,-843.833 3162.39,-847.162C3160.01,-850.019 3160.01,-852.336 3160,-856.143C3160,-856.573 3160.76,-857.204 3161.37,-856.289C3161.43,-856.213 3164.18,-851.15 3167.8,-849.331C3169.32,-848.568 3170.25,-848.888 3170.36,-848.854C3170.49,-848.814 3170.54,-848.649 3170.66,-848.61C3170.55,-848.544 3170.52,-848.394 3170.4,-848.328C3170.28,-848.255 3169.62,-848.252 3169.55,-848.252C3169.42,-848.251 3167.83,-848.133 3165.34,-849.983C3163.44,-851.393 3162.2,-852.856 3161.28,-854.12C3161.26,-851.632 3161.51,-849.301 3163.99,-846.695C3166.61,-843.937 3171.11,-842.698 3170.82,-841.688C3170.46,-840.479 3166.29,-841.881 3163.28,-841.371C3162.29,-841.204 3160.29,-840.674 3158.87,-839.814C3159.47,-839.114 3162.2,-838.57 3165.57,-838.456C3166.04,-838.44 3170.02,-838.305 3171.4,-837.84C3171.64,-837.757 3171.93,-837.509 3171.46,-837.264C3168.76,-835.871 3166.95,-835.859 3164.12,-831.458C3163.58,-830.611 3163.28,-830.055 3163.1,-829.694C3164.45,-829.891 3167.72,-830.717 3169.91,-832.98C3171.41,-834.521 3172.96,-836.901 3175.32,-835.77C3175.36,-835.749 3175.42,-835.745 3175.45,-835.704C3175.52,-835.583 3175.51,-835.432 3175.58,-835.31C3175.43,-835.292 3175.3,-835.211 3175.15,-835.193C3174.93,-835.166 3173.97,-836.169 3172.27,-834.301C3170.97,-832.866 3170.02,-830.731 3165.62,-829.016C3165.13,-828.823 3161.88,-827.524 3161.48,-829.019C3161.23,-829.987 3164.58,-834.149 3166.7,-835.476C3168.23,-836.439 3169.88,-836.902 3171.1,-837.519Z"/>
                </g>
            </g>
        </g>
    </g>
</svg>
